<svg id="Layer_1" data-name="Layer 1" xmlns="http://www.w3.org/2000/svg" viewBox="0 0 448 448"><defs><style>.cls-1{fill:#00d888;}</style></defs><title>checkmark</title><path class="cls-1" d="M400,32H48A48,48,0,0,0,0,80V432a48,48,0,0,0,48,48H400a48,48,0,0,0,48-48V80A48,48,0,0,0,400,32Zm0,400H48V80H400ZM364.14,190.28,191.55,361.48a12,12,0,0,1-17-.07L83.8,269.9a12,12,0,0,1,.06-17l22.72-22.54a12,12,0,0,1,17,.07l59.8,60.28L324.7,150.52a12,12,0,0,1,17,.07l22.53,22.72a12,12,0,0,1-.06,17Z" transform="translate(0 -32)"/></svg>