<?xml version="1.0" encoding="UTF-8"?>
<svg width="1626px" height="588px" viewBox="0 0 1626 588" version="1.1" xmlns="http://www.w3.org/2000/svg" xmlns:xlink="http://www.w3.org/1999/xlink">
    <!-- Generator: Sketch 52.4 (67378) - http://www.bohemiancoding.com/sketch -->
    <title>wide-shot</title>
    <desc>Created with Sketch.</desc>
    <g id="wide-shot" stroke="none" stroke-width="1" fill="none" fill-rule="evenodd">
        <g id="Group" transform="translate(63.000000, 63.000000)">
            <g id="Group-8" transform="translate(450.000000, 0.000000)">
                <g id="Head/Front/Caesar" transform="translate(142.000000, 60.000000) rotate(7.000000) translate(-142.000000, -60.000000) translate(74.000000, 8.000000)">
                    <g id="Head" stroke-width="1" transform="translate(56.000000, 31.000000)" fill="#B28B67">
                        <polygon id="Neck" points="9.48548113e-17 73 10.0838263 26 17.3565406 26 24 73"></polygon>
                        <path d="M35.7603014,49.2634576 C28.2710248,51.1939193 -0.444777553,36.4259284 1.05677633,15.0254539 C2.55833022,-6.37502057 32.3485306,-1.66718886 38.1433414,9.13393292 C43.9381521,19.9350547 43.249578,47.3329958 35.7603014,49.2634576 Z"></path>
                    </g>
                    <path d="M71.729818,53.8670262 C70.9449555,53.3276287 70.0072604,53 69,53 C66.2385763,53 64,55.4624339 64,58 C64,60.6398741 65.246606,62.6810346 67.026826,63.5469713 C66.0760216,65.4058954 65.1199761,66.7549721 64,67 C59.6781395,66.5628085 54,55.8205201 54,47 C54,37.3455086 61.6819829,29 76,29 C88.8690713,29 93.7485692,34.3062174 94,39 C88.4853531,40.5156046 78.8492499,41.0992165 65,41 L65,42 L77,43 L79,49 C75.8180725,48.7624609 73.5442799,50.9449742 71.729818,53.8670262 Z" id="Combined-Shape" fill="#191847"></path>
                </g>
                <g id="Bottom/Standing/Shorts" transform="translate(0.000000, 194.000000)">
                    <polygon id="Leg" fill="#997659" points="128 9.9475983e-14 165.630838 123.024171 183.860154 227.648304 198.153197 227.648304 178.890974 9.9475983e-14"></polygon>
                    <path d="M114.537727,0 C117.093705,67.5468821 114.085665,102.388787 113.513606,108.525715 C112.941548,114.662643 105.108196,154.454812 86.5636874,229.708469 L101.793992,224.477699 C131.10186,155.458959 141.088936,119.5887 144.450326,110.525715 C147.811717,101.46273 156.739403,64.6208249 171.233385,0 L114.537727,0 Z" id="Leg" fill="#B28B67"></path>
                    <g id="Accessories/Shoe/Flat-Sneaker" transform="translate(84.000000, 199.000000)" fill="#E4E4E4">
                        <path d="M2.67813181,25.4019242 C1.55937727,28.3884109 1,30.6229931 1,32.1056708 C1,33.908957 1.3004142,36.5404001 1.90124261,40 C3.99318117,40 22.7937852,40 58.3030548,40 C59.768738,35.1545073 58.9226607,32.5385816 55.7648228,32.1522232 C52.606985,31.7658647 49.9837155,31.4170139 47.8950143,31.1056708 L21.6799926,19.4188835 C21.1755635,19.1940064 20.584344,19.4206282 20.359467,19.9250573 C20.35562,19.9336867 20.3518954,19.9423702 20.3482945,19.9511052 L18.6632131,24.038695 C15.7398812,25.4026522 13.3643706,26.0846307 11.5366811,26.0846307 C10.0517269,26.0846307 8.00099246,25.4849054 5.38447792,24.2854549 L5.38448339,24.285443 C4.38038273,23.8251478 3.19325534,24.2659892 2.73296014,25.2700899 C2.71312074,25.3133681 2.69483298,25.3573409 2.67813181,25.4019242 Z" id="shoe"></path>
                    </g>
                    <g id="Accessories/Shoe/Flat-Sneaker" transform="translate(178.000000, 199.000000)" fill="#E4E4E4">
                        <path d="M2.67813181,25.4019242 C1.55937727,28.3884109 1,30.6229931 1,32.1056708 C1,33.908957 1.3004142,36.5404001 1.90124261,40 C3.99318117,40 22.7937852,40 58.3030548,40 C59.768738,35.1545073 58.9226607,32.5385816 55.7648228,32.1522232 C52.606985,31.7658647 49.9837155,31.4170139 47.8950143,31.1056708 L21.6799926,19.4188835 C21.1755635,19.1940064 20.584344,19.4206282 20.359467,19.9250573 C20.35562,19.9336867 20.3518954,19.9423702 20.3482945,19.9511052 L18.6632131,24.038695 C15.7398812,25.4026522 13.3643706,26.0846307 11.5366811,26.0846307 C10.0517269,26.0846307 8.00099246,25.4849054 5.38447792,24.2854549 L5.38448339,24.285443 C4.38038273,23.8251478 3.19325534,24.2659892 2.73296014,25.2700899 C2.71312074,25.3133681 2.69483298,25.3573409 2.67813181,25.4019242 Z" id="shoe"></path>
                    </g>
                    <polygon id="Bottom" fill="#69A1AC" points="123 0 139 62.6795201 187.870318 62.6795201 180.583554 0"></polygon>
                    <path d="M114,-3.55271368e-15 C108.735439,15.7805461 107.735439,36.6737195 111,62.6795201 L160.870318,62.6795201 L174.583554,-3.55271368e-15 L114,-3.55271368e-15 Z" id="Bottom" fill="#89C5CC"></path>
                </g>
                <g id="Body/Pregnant" transform="translate(142.844663, 183.188981) rotate(-1.000000) translate(-142.844663, -183.188981) translate(14.844663, 89.688981)">
                    <path d="M82.7913029,131.10985 C136.088855,148.914077 169.06816,144.632022 181.72922,118.263682 C195.780651,88.999709 173.864991,67.1661596 161.54868,47.4680378 C153.625725,34.7964415 141.101479,20.0687681 141.101479,4.32798224 L113.111009,0 C98.5818163,14 95.2086195,68.0914512 94.8366189,85.3605479 C94.4646183,102.629645 82.7913029,116.907461 82.7913029,131.10985 Z" id="Clothes-Body" fill="#C1DEE2"></path>
                    <path d="M175.350255,117.008742 C179.708836,117.37635 182.929474,113.51125 183.84651,114.597847 C185.362212,119.097853 181.081226,130.362106 172.89821,132 C168.990655,132.782127 162.94394,124.724092 160.45259,121.868948 C158.79169,119.965519 145.97416,110.67587 122,94 L136.935359,77 C159.639569,103.427422 172.444535,116.76367 175.350255,117.008742 Z" id="Path-4" fill="#B28B67"></path>
                    <path d="M171.62123,59.2823205 C175.486784,59.2823205 177.563178,60.8804131 179.848781,64.1046411 C182.134384,67.328869 184.297191,82.5350373 180.6276,82.5350373 C176.958008,82.5350373 161.583419,76.656821 161.583419,72.7050102 C161.583419,68.7531993 172.074145,67.079644 172.074145,64.1046411 C172.074145,61.1296381 167.755676,59.2823205 171.62123,59.2823205 Z" id="Path-3" fill="#B28B67"></path>
                    <path d="M109.80423,9 C93.7979782,54.5245801 90.1763456,95.0250712 137.356799,128 C143.892573,104.633638 147.07537,92.8529367 146.905191,92.6578947 C129.096212,72.2470793 113.524644,53.9266394 120.076793,14.166507 L109.80423,9 Z" id="Clothes-Front" fill="#89C5CC"></path>
                    <path d="M111.80423,0 C95.7979782,50.8804131 95.1363265,92.0792004 142.31678,128.933533 C147.510094,102.524143 150.021661,89.2104538 149.851481,88.9924658 C132.042502,66.180378 117.524644,50.2121264 124.076793,5.77433139 L111.80423,0 Z" id="Clothes-Front" fill="#C1DEE2"></path>
                </g>
            </g>
            <g id="Group-6" transform="translate(300.000000, 16.000000)">
                <g id="Head/Front/Airy" transform="translate(82.000000, 0.000000)">
                    <g id="Head" stroke-width="1" transform="translate(56.000000, 31.000000)" fill="#B28B67">
                        <polygon id="Neck" points="9.48548113e-17 73 10.0838263 26 17.3565406 26 24 73"></polygon>
                        <path d="M35.7603014,49.2634576 C28.2710248,51.1939193 -0.444777553,36.4259284 1.05677633,15.0254539 C2.55833022,-6.37502057 32.3485306,-1.66718886 38.1433414,9.13393292 C43.9381521,19.9350547 43.249578,47.3329958 35.7603014,49.2634576 Z"></path>
                    </g>
                    <path d="M80.46395,27.6852568 C77.3008195,27.1665378 68.7839511,26.8099042 67.2132884,26.8101344 C66.2095609,26.8101344 65.1218259,27.0394482 64.5273474,26.1178184 C64.0405177,25.3631089 64.2188613,24.0866873 64.0735698,23.2108742 C63.9048664,22.1934668 63.6652388,21.1891827 63.4228569,20.1874312 C62.7331241,17.3368945 61.6901472,14.6249591 60.2308058,12.0787928 C57.4925323,7.30188179 53.4810649,3.56010629 48.4167508,1.38277606 C42.824292,-1.02133542 36.4959652,-1.57182675 30.4804855,-1.08418951 C24.0431327,-0.562477519 18.2158664,1.56258942 12.137955,3.56240864 C6.34603603,5.46806184 0.279601099,6.21816672 -5.77811175,5.28755777 C-11.8815008,4.35004179 -16.4931849,1.0420286 -21.6412768,-2.09768297 C-26.9114778,-5.31199061 -32.9343023,-7.4142643 -39.1646205,-6.93100152 C-44.9804104,-6.47974137 -50.3405866,-4.0783927 -55.1496651,-0.870531642 C-59.6491098,2.13080883 -63.3617312,5.74181098 -65.4577843,10.8240133 C-67.7126711,16.2909379 -67.7106053,22.291777 -64.0025745,27.1232537 C-58.627938,34.1265349 -48.6501101,35.9375616 -40.3489869,35.7575181 C-35.5474828,35.6536822 -30.8318224,34.7771784 -26.298637,33.1828026 C-20.2530892,31.0563543 -15.0287938,27.4522592 -9.37298515,24.5280473 C-6.71871903,23.1558481 -3.97516638,22.0288489 -1.09940537,21.2170411 C1.6912006,20.4289475 4.43980288,20.0674789 6.96645123,21.7532579 C9.63930914,23.5366564 12.0344377,25.2885128 15.0922147,26.4049212 C18.0255874,27.4759733 21.132713,28.0750442 24.2579713,28.0508696 C30.338637,28.0039017 36.3327705,26.1092997 42.2385356,24.8402457 C47.0544999,23.8055706 52.2074119,22.7743491 57.1172534,23.7689633 C59.1660236,24.1840766 62.1586146,25.0410104 62.8986141,27.1702216 C50.4441749,29.4274433 45.5527072,44.8301494 49.0638027,56.1372093 C50.958789,62.2400423 62.3498117,69.3741897 66.7787912,66.1658382 C69.5846772,64.1332552 67.881216,61.4648419 66.7787912,59.7033156 C64.6675892,56.3299158 63.9452634,51.9966672 67.8518364,49.6480423 C71.2215424,47.6224367 74.7645562,52.4327123 74.8315785,52.4274169 C75.7577255,52.3544325 83.7604403,47.8285457 89.2741651,41.224129 C94.7134751,41.5465656 95.5386971,37.9600245 94.2398964,35.026908 C92.9410957,32.0937915 84.8343998,28.4024381 80.46395,27.6852568 Z" id="hair" fill="#191847"></path>
                </g>
                <g id="Bottom/Standing/Jogging" transform="translate(0.000000, 187.000000)">
                    <polygon id="Leg" fill="#997659" points="130 0 204.306413 124.226909 260.014844 229.25029 272.013946 229.25029 178.673688 5.090379e-13"></polygon>
                    <g id="Accessories/Shoe/Flat-Sneaker" transform="translate(250.000000, 199.000000)" fill="#E4E4E4">
                        <path d="M2.67813181,25.4019242 C1.55937727,28.3884109 1,30.6229931 1,32.1056708 C1,33.908957 1.3004142,36.5404001 1.90124261,40 C3.99318117,40 22.7937852,40 58.3030548,40 C59.768738,35.1545073 58.9226607,32.5385816 55.7648228,32.1522232 C52.606985,31.7658647 49.9837155,31.4170139 47.8950143,31.1056708 L21.6799926,19.4188835 C21.1755635,19.1940064 20.584344,19.4206282 20.359467,19.9250573 C20.35562,19.9336867 20.3518954,19.9423702 20.3482945,19.9511052 L18.6632131,24.038695 C15.7398812,25.4026522 13.3643706,26.0846307 11.5366811,26.0846307 C10.0517269,26.0846307 8.00099246,25.4849054 5.38447792,24.2854549 L5.38448339,24.285443 C4.38038273,23.8251478 3.19325534,24.2659892 2.73296014,25.2700899 C2.71312074,25.3133681 2.69483298,25.3573409 2.67813181,25.4019242 Z" id="shoe"></path>
                    </g>
                    <path d="M244.543057,212.432889 L267.683113,205.432889 C257.544824,175.124875 245.118911,141.772016 230.405374,105.374313 C215.691837,68.97661 199.890046,33.851839 183,2.84217094e-14 L117.644073,2.84217094e-14 C136.422172,42.821022 156.329475,81.7294172 177.365982,116.725186 C198.402489,151.720954 220.794847,183.623522 244.543057,212.432889 Z" id="Pant" fill="#DB2721"></path>
                    <path d="M125.116628,2.84217094e-14 C118.103498,43.6541888 104.577091,99.4274685 103.300563,101.148648 C102.449544,102.296102 71.8126514,112.562199 11.3898843,131.94694 L13.9818352,142.527938 C86.0358431,132.131776 124.00216,124.066006 127.880787,118.330628 C133.698727,109.72756 162.748486,41.763137 174,2.84217094e-14 L125.116628,2.84217094e-14 Z" id="Leg" fill="#B28B67"></path>
                    <path d="M32.6295078,122.800477 L37.1949469,139.841939 C91.0871466,144.568621 124.108088,141.153296 136.25777,129.595966 C148.407453,118.038636 162.254504,74.839981 177.798925,-1.13686838e-13 L115.478146,-1.13686838e-13 C105.629567,61.2838742 100.12357,93.2121259 98.9601559,95.7847551 C97.7967416,98.3573843 75.6865256,107.362625 32.6295078,122.800477 Z" id="Pant" fill="#FF4133"></path>
                    <g id="Accessories/Shoe/Flat-Sneaker" transform="translate(24.500000, 154.000000) rotate(80.000000) translate(-24.500000, -154.000000) translate(-6.000000, 134.000000)" fill="#E4E4E4">
                        <path d="M2.67813181,25.4019242 C1.55937727,28.3884109 1,30.6229931 1,32.1056708 C1,33.908957 1.3004142,36.5404001 1.90124261,40 C3.99318117,40 22.7937852,40 58.3030548,40 C59.768738,35.1545073 58.9226607,32.5385816 55.7648228,32.1522232 C52.606985,31.7658647 49.9837155,31.4170139 47.8950143,31.1056708 L21.6799926,19.4188835 C21.1755635,19.1940064 20.584344,19.4206282 20.359467,19.9250573 C20.35562,19.9336867 20.3518954,19.9423702 20.3482945,19.9511052 L18.6632131,24.038695 C15.7398812,25.4026522 13.3643706,26.0846307 11.5366811,26.0846307 C10.0517269,26.0846307 8.00099246,25.4849054 5.38447792,24.2854549 L5.38448339,24.285443 C4.38038273,23.8251478 3.19325534,24.2659892 2.73296014,25.2700899 C2.71312074,25.3133681 2.69483298,25.3573409 2.67813181,25.4019242 Z" id="shoe"></path>
                    </g>
                </g>
                <g id="Body/Jacket" transform="translate(22.000000, 82.000000)">
                    <path d="M191.954033,91 L222.582692,116.060924 C231.100127,118.844986 238.166234,122.123776 243.781013,125.897294 C245.084887,127.216747 246.607346,129.830261 240.95157,129.095963 C235.295793,128.361665 229.313741,127.843655 228.428687,129.739495 C227.543633,131.635336 230.858658,134.131755 229.13781,136.662138 C227.990579,138.34906 223.230921,133.718965 214.858838,122.771852 L184,108.03803 L191.954033,91 Z" id="Arm" fill="#B28B67" transform="translate(214.500000, 114.000000) rotate(5.000000) translate(-214.500000, -114.000000) "></path>
                    <path d="M122.01899,9.23199981 L130.503942,7.00082913 C148.576175,42.7520052 177.414525,74.1501034 217.01899,101.195124 L192.061793,137.56505 C151.33882,97.6857553 124.670571,55.1985909 122.01899,9.23199981 Z" id="Clothes-Back" fill="#191847" transform="translate(169.518990, 72.282940) rotate(5.000000) translate(-169.518990, -72.282940) "></path>
                    <path d="M77.456266,95.2556616 C62.9172472,131.657103 54.2802402,151.593138 51.5452453,155.063767 C49.5396445,157.608817 37.3325414,164.041256 29.0866319,167.446368 C25.7768357,168.813134 26.4336715,171.602045 27.3816305,172.50717 C35.0921168,179.869258 42.3114079,174.636246 50.7520807,172.695394 C59.9995627,170.569024 56.9389535,181.472905 64.2444638,179.905793 C63.1720419,174.879619 60.1982464,165.318807 63.6539018,160.19068 C65.1897486,157.911513 76.5984192,137.741572 97.8799136,99.6808575 L77.456266,95.2556616 Z" id="Arm" fill="#B28B67" transform="translate(62.246131, 137.658087) rotate(-12.000000) translate(-62.246131, -137.658087) "></path>
                    <path d="M90,114 L167,114 C149.16087,70.6251468 140.241304,33.7787236 140.241304,3.4607303 L118.1718,0 C99.917485,29.3584068 93.6048263,65.5045499 90,114 Z" id="Clothes-Body" fill="#DDE3E9"></path>
                    <path d="M73.3511268,134.605966 L142.351127,134.605966 C136.010826,75.3421183 132.543836,35.9324229 131.950158,16.3768801 L126.337658,1.33767327 L116.531583,0 C100.17382,29.3584068 76.5814257,86.1105161 73.3511268,134.605966 Z" id="Clothes-Body" fill="#2F3676"></path>
                    <path d="M94.5,57 C94.6747737,96.4241074 98.508107,122.424107 106,135 L83,135 L94.5,57 Z" id="Shade" fill-opacity="0.1" fill="#000000"></path>
                    <path d="M116.503963,0 C81.1152373,34.6639633 60.6139164,83.6639633 55,147 L92.5306047,147 C88.6419845,93.6698222 98.7984496,46.5945993 123,5.77433139 L116.503963,0 Z" id="Clothes-Front" fill="#2F3676"></path>
                    <polygon id="Light" fill-opacity="0.2" fill="#FFFFFF" points="103.110899 104 128 92.4292718 128 104"></polygon>
                </g>
            </g>
            <g id="Group-9" transform="translate(150.000000, 1.000000)">
                <g id="Head/Front/Afro" transform="translate(123.000000, 68.000000) rotate(-15.000000) translate(-123.000000, -68.000000) translate(55.000000, 16.000000)">
                    <path d="M63,77.7068588 C74.4289379,77.7068588 78.5854974,64.0240838 85.0786187,56.5153483 C89.7243138,51.143002 97.6530795,52.7449442 100,45.2237762 C105.901542,26.3111237 90.1061086,13 69.5,13 C48.8938914,13 35,24.6742524 32,42.2237762 C29,59.7733 42.3938914,77.7068588 63,77.7068588 Z" id="Hair-Back" fill="#191847"></path>
                    <g id="Head" stroke-width="1" transform="translate(56.000000, 31.000000)" fill="#B28B67">
                        <polygon id="Neck" points="9.48548113e-17 73 10.0838263 26 17.3565406 26 24 73"></polygon>
                        <path d="M35.7603014,49.2634576 C28.2710248,51.1939193 -0.444777553,36.4259284 1.05677633,15.0254539 C2.55833022,-6.37502057 32.3485306,-1.66718886 38.1433414,9.13393292 C43.9381521,19.9350547 43.249578,47.3329958 35.7603014,49.2634576 Z"></path>
                    </g>
                    <path d="M74.379769,51.7233675 C73.5077737,51.2620302 72.5086201,51 71.4466684,51 C68.0464589,51 65.2900445,53.6862915 65.2900445,57 C65.2900445,58.3524891 65.749225,59.6004592 66.5239446,60.6039231 C65.0651901,63.0083834 64.0695832,65.5346814 63.7432388,68.1317726 C58.6870351,68.1317726 40.2335803,49 58.6167901,31 C77,13 103.566014,38.6959598 95.5831606,40.1945268 C90.9934286,41.0561261 81.7498479,45.4379083 74.3797716,51.7233656 Z" id="Hair" fill="#191847"></path>
                </g>
                <g id="Bottom/Standing/Baggy-Pants" transform="translate(0.000000, 202.000000)">
                    <polygon id="Leg" fill="#997659" points="134 0 183.081639 124.226909 216.000898 229.25029 229 229.25029 178.673688 5.090379e-13"></polygon>
                    <path d="M124.116628,0 C123.593979,43.6541888 115.971833,102.427468 114.754071,105.148648 C113.942229,106.962768 85.9161573,130.032465 30.6758546,174.357739 L39.6290713,183.938736 C104.807511,145.935376 138.9048,124.399339 141.920937,119.330628 C146.445143,111.72756 161.1744,41.763137 173,0 L124.116628,0 Z" id="Leg" fill="#B28B67"></path>
                    <g id="Accessories/Shoe/Flat-Sneaker" transform="translate(51.500000, 189.000000) rotate(50.000000) translate(-51.500000, -189.000000) translate(21.000000, 169.000000)" fill="#E4E4E4">
                        <path d="M2.67813181,25.4019242 C1.55937727,28.3884109 1,30.6229931 1,32.1056708 C1,33.908957 1.3004142,36.5404001 1.90124261,40 C3.99318117,40 22.7937852,40 58.3030548,40 C59.768738,35.1545073 58.9226607,32.5385816 55.7648228,32.1522232 C52.606985,31.7658647 49.9837155,31.4170139 47.8950143,31.1056708 L21.6799926,19.4188835 C21.1755635,19.1940064 20.584344,19.4206282 20.359467,19.9250573 C20.35562,19.9336867 20.3518954,19.9423702 20.3482945,19.9511052 L18.6632131,24.038695 C15.7398812,25.4026522 13.3643706,26.0846307 11.5366811,26.0846307 C10.0517269,26.0846307 8.00099246,25.4849054 5.38447792,24.2854549 L5.38448339,24.285443 C4.38038273,23.8251478 3.19325534,24.2659892 2.73296014,25.2700899 C2.71312074,25.3133681 2.69483298,25.3573409 2.67813181,25.4019242 Z" id="shoe"></path>
                    </g>
                    <g id="Accessories/Shoe/Flat-Sneaker" transform="translate(208.000000, 199.000000)" fill="#E4E4E4">
                        <path d="M2.67813181,25.4019242 C1.55937727,28.3884109 1,30.6229931 1,32.1056708 C1,33.908957 1.3004142,36.5404001 1.90124261,40 C3.99318117,40 22.7937852,40 58.3030548,40 C59.768738,35.1545073 58.9226607,32.5385816 55.7648228,32.1522232 C52.606985,31.7658647 49.9837155,31.4170139 47.8950143,31.1056708 L21.6799926,19.4188835 C21.1755635,19.1940064 20.584344,19.4206282 20.359467,19.9250573 C20.35562,19.9336867 20.3518954,19.9423702 20.3482945,19.9511052 L18.6632131,24.038695 C15.7398812,25.4026522 13.3643706,26.0846307 11.5366811,26.0846307 C10.0517269,26.0846307 8.00099246,25.4849054 5.38447792,24.2854549 L5.38448339,24.285443 C4.38038273,23.8251478 3.19325534,24.2659892 2.73296014,25.2700899 C2.71312074,25.3133681 2.69483298,25.3573409 2.67813181,25.4019242 Z" id="shoe"></path>
                    </g>
                    <polygon id="Pant" fill="#69A1AC" points="167 218.432889 228.804464 211.725327 183 2.84217094e-14 127.644073 2.84217094e-14"></polygon>
                    <path d="M43.4599581,158.900479 L84,206.885961 C126.699953,160.249961 151.594137,129.819963 158.682552,115.595966 C165.770967,101.37197 172.143091,62.839981 177.798925,0 L115.478146,0 C112.388642,55.2838742 110.306102,84.2121259 109.230525,86.7847551 C108.154948,89.3573843 86.2314253,113.395959 43.4599581,158.900479 Z" id="Pant" fill="#89C5CC"></path>
                </g>
                <g id="Body/Hoodie" transform="translate(149.000000, 191.500000) rotate(-10.000000) translate(-149.000000, -191.500000) translate(21.000000, 98.000000)">
                    <path d="M115.659864,21.1067619 C99.2642499,31.6797904 88.3776287,32.1145998 83,22.4111902 C74.933557,7.85607578 77.8467271,-0.157592785 86.4671964,-2.7917309 C95.0876658,-5.42586901 102.775319,-2.04281037e-14 116.510031,-7.10542736e-15 C125.666506,8.8817842e-16 125.383117,7.03558728 115.659864,21.1067619 Z" id="hood" fill="#FF9B21"></path>
                    <path d="M191.954033,91 L222.582692,116.060924 C231.100127,118.844986 238.166234,122.123776 243.781013,125.897294 C245.084887,127.216747 246.607346,129.830261 240.95157,129.095963 C235.295793,128.361665 229.313741,127.843655 228.428687,129.739495 C227.543633,131.635336 230.858658,134.131755 229.13781,136.662138 C227.990579,138.34906 223.230921,133.718965 214.858838,122.771852 L184,108.03803 L191.954033,91 Z" id="Arm" fill="#B28B67" transform="translate(214.500000, 114.000000) rotate(-3.000000) translate(-214.500000, -114.000000) "></path>
                    <path d="M122.731734,9.58031077 L131.216685,7.34914009 C165.5935,32.1628362 183.361709,84.0563407 224.996623,108.72736 L216.58973,121.240539 C147.889238,118.771641 125.383314,55.5469019 122.731734,9.58031077 Z" id="Clothes-Back" fill="#E87613" transform="translate(173.864178, 64.294840) rotate(5.000000) translate(-173.864178, -64.294840) "></path>
                    <path d="M77.456266,95.2556616 C62.9172472,131.657103 54.2802402,151.593138 51.5452453,155.063767 C49.5396445,157.608817 37.3325414,164.041256 29.0866319,167.446368 C25.7768357,168.813134 26.4336715,171.602045 27.3816305,172.50717 C35.0921168,179.869258 42.3114079,174.636246 50.7520807,172.695394 C59.9995627,170.569024 56.9389535,181.472905 64.2444638,179.905793 C63.1720419,174.879619 60.1982464,165.318807 63.6539018,160.19068 C65.1897486,157.911513 76.5984192,137.741572 97.8799136,99.6808575 L77.456266,95.2556616 Z" id="Arm" fill="#B28B67" transform="translate(62.246131, 137.658087) rotate(-12.000000) translate(-62.246131, -137.658087) "></path>
                    <path d="M90,114 C124.671756,114 150.175573,114 166.511451,114 C170.007634,114 169.348845,108.951637 168.84345,106.404206 C163.010588,77.0037663 140.241304,45.3115155 140.241304,3.4607303 L118.1718,0 C99.917485,29.3584068 93.6048263,65.5045499 90,114 Z" id="Clothes-Body" fill="#DDE3E9"></path>
                    <path d="M73,135 L141.872285,135 C150.760885,112.536948 145.293986,67.7151944 125.471587,0.534739944 L116.100531,0 C99.7730457,29.4443481 76.2243198,86.3625886 73,135 Z" id="Clothes-Body" fill="#FF9B21"></path>
                    <path d="M92.5,57 C92.6747737,96.4241074 96.508107,122.424107 104,135 L81,135 L92.5,57 Z" id="Shade" fill-opacity="0.1" fill="#000000"></path>
                    <path d="M116.503963,0 C73.5013209,39.3333333 53,91.3333333 55,156 L71.4089926,156 C85.6666064,131.16213 102.863609,81.0869075 123,5.77433139 L116.503963,0 Z" id="Clothes-Front" fill="#FF9B21"></path>
                </g>
            </g>
            <g id="Group-6" transform="translate(750.000000, 16.000000)">
                <g id="Head/Front/Curly" transform="translate(82.000000, 0.000000)">
                    <g id="Head" stroke-width="1" transform="translate(56.000000, 31.000000)" fill="#B28B67">
                        <polygon id="Neck" points="9.48548113e-17 73 10.0838263 26 17.3565406 26 24 73"></polygon>
                        <path d="M35.7603014,49.2634576 C28.2710248,51.1939193 -0.444777553,36.4259284 1.05677633,15.0254539 C2.55833022,-6.37502057 32.3485306,-1.66718886 38.1433414,9.13393292 C43.9381521,19.9350547 43.249578,47.3329958 35.7603014,49.2634576 Z"></path>
                    </g>
                    <path d="M104.7757,25.1604378 C104.27871,23.413499 102.941932,21.9177553 101.1404,21.4740102 C100.703531,21.3663739 100.252357,21.3228991 99.8028308,21.3410245 C99.6415842,21.3474604 99.5963613,21.3939561 99.5210118,21.2811974 C99.4651095,21.197597 99.463857,20.9933574 99.44085,20.8951122 C99.3692581,20.5896064 99.2797352,20.2879096 99.169249,19.9940277 C98.7923038,18.9916772 98.1588538,18.1045809 97.3952068,17.3573001 C95.9668625,15.9592762 94.0369134,14.9944243 92.0318126,14.8198684 C90.9343996,14.7243814 89.8449632,14.9026807 88.8074738,15.2596732 C88.2703367,15.444474 87.7494825,15.6745884 87.2422083,15.9290015 C87.0894658,16.0055749 86.5939258,16.3806273 86.4406558,16.3563287 C86.2713667,16.3295345 85.9311403,15.9088402 85.793494,15.8032397 C84.0920984,14.4978789 81.9910802,13.9846529 79.8718674,14.0003485 C77.4798671,14.0180142 75.1765325,14.1375371 73.1815838,15.5957165 C72.7592838,15.9044402 72.3570902,16.2424535 71.974146,16.5983297 C71.7724889,16.7856917 71.5771603,16.9800806 71.3908631,17.1825471 C71.2784651,17.3046969 71.1690337,17.4296049 71.0636894,17.5578621 C70.8849074,17.7755645 70.9135837,17.8470813 70.6633416,17.6951821 C69.7032454,17.1118841 68.5906702,16.8390829 67.4700524,16.976797 C66.80463,17.0586242 66.1572045,17.2583982 65.5424765,17.5213485 C65.3331724,17.6108594 64.8487074,17.9679176 64.6256255,17.9713982 C64.4043234,17.9748132 63.9266485,17.6438267 63.6986882,17.5597009 C62.4674524,17.1051856 61.1403652,16.9931493 59.8462393,17.2031681 C58.5113072,17.4198854 57.1999755,17.9524847 56.068942,18.6884699 C55.524949,19.0425073 55.0503065,19.4347656 54.6690763,19.9611918 C54.5044676,20.1884823 54.3556804,20.4289072 54.1691195,20.6396484 C54.0598858,20.7630459 53.8435939,20.8896614 53.7849887,21.0458292 C53.8200595,20.9523124 52.3250675,20.3759756 52.1839932,20.3391337 C51.43241,20.1428403 50.6671149,20.1826375 49.9311554,20.4248355 C48.5472429,20.8802703 47.3570768,21.9016 46.3789178,22.9487388 C45.8765219,23.4865919 45.4368843,24.0811198 45.0636966,24.7145254 C44.8848487,25.0179297 44.7212948,25.3300027 44.5716506,25.6487085 C44.4991357,25.8031032 44.4510782,25.9962443 44.3555564,26.1353375 C44.232413,26.3145561 44.1496802,26.3179711 43.9266642,26.3961207 C42.7940485,26.7929104 41.7615692,27.4645372 40.9753108,28.3720574 C40.1800209,29.2902166 39.663979,30.42089 39.4476212,31.6115877 C39.4348981,31.6817253 39.427317,31.9723892 39.3862473,32.0103476 C39.3299494,32.0626224 39.1021869,32.0395059 39.0160261,32.0496194 C38.7176606,32.0846225 38.4214046,32.1367003 38.1291039,32.2059185 C37.5902528,32.3334534 37.0657729,32.5211438 36.5696396,32.7666254 C34.6356033,33.723531 33.2525478,35.5174909 32.5756549,37.5361144 C31.8654051,39.6545592 31.8779963,42.0815964 32.7268813,44.1605068 C32.8640002,44.4962873 33.0271586,44.8222171 33.2187955,45.1305467 C33.3364672,45.3198132 33.3744386,45.3202729 33.2980344,45.5188648 C33.2128624,45.7397851 33.0572852,45.9544667 32.9561599,46.1703303 C32.6262175,46.874793 32.3955544,47.6219424 32.2498656,48.3850501 C32.0108303,49.6368226 31.8923675,50.9522969 32.1281725,52.2135918 C32.2376699,52.799254 32.4284498,53.3717818 32.7194979,53.8934139 C32.8678896,54.1593852 33.0415297,54.411631 33.2375834,54.6449634 C33.3393678,54.7661281 33.4474808,54.881842 33.5605381,54.9926962 C33.6252081,55.0560039 33.7099845,55.111431 33.7649639,55.1821597 C33.8991823,55.3546142 33.9273971,55.2128285 33.8581785,55.4660594 C33.7614041,55.8200967 33.5420138,56.1694057 33.4076636,56.5139206 C33.2692262,56.868943 33.1441052,57.2288251 33.0296636,57.5922535 C32.7978799,58.3281731 32.6018921,59.077424 32.479342,59.8395467 C32.2439984,61.3027828 32.2853319,62.8618999 32.9774529,64.204825 C33.2733793,64.7792573 33.6979207,65.2831579 34.2128419,65.6751536 C34.4648638,65.8669157 34.7378492,66.0322119 35.0242168,66.1679557 C35.171356,66.2378307 35.3592353,66.2677771 35.4263445,66.4100881 C35.4985956,66.5631037 35.3913396,66.8669677 35.3668823,67.038043 C35.1540843,68.5263001 35.0473557,70.0888978 35.489762,71.5473398 C35.8972294,72.890659 36.7943696,74.0766939 37.9591555,74.8619331 C40.2187834,76.3851933 43.2646697,76.2992944 45.6389369,75.0798325 C46.257818,74.7619147 46.8368159,74.3672265 47.3533193,73.9016782 C48.6685404,75.6721932 51.3749915,75.6161751 53.2972276,75.1116834 C55.6920627,74.4832031 57.6137056,72.8179602 58.7208751,70.6300344 C60.2347869,72.4729856 63.411991,71.8750427 64.4618079,69.8757268 C64.718774,69.3864053 64.871187,68.8471075 64.9462069,68.3013738 C64.9856945,68.0143875 64.9605121,67.7249057 64.9901773,67.4402179 C65.0280168,67.0774462 65.2703482,66.7249193 65.4096426,66.3739686 C65.6809139,65.6909806 65.8493461,64.9854671 65.8565976,64.2487595 C65.8603552,63.8641191 65.8116384,63.4892637 65.7750514,63.1077099 C65.742156,62.7642457 65.8374141,62.4442264 65.8915365,62.105228 C65.277336,62.2063627 64.5290489,62.0407382 63.9503806,61.8626359 C63.3825236,61.6878829 62.8506603,61.2275884 62.4498511,60.8072225 C61.5192222,59.831075 60.950706,58.5514576 60.5618947,57.2778821 C59.7083952,54.4826224 60.0582462,51.1289544 62.8697779,49.5948583 C64.1795274,48.8802164 68.1033718,48.8825605 69.6633416,49.2357609 C71.3035816,49.6071356 73.1630595,53.2263842 73.25456,53.5665648 C73.3111875,53.7771089 73.282709,54.0376951 73.4761258,54.1779703 C73.9011945,54.4864314 74.6022151,53.9511395 74.9157428,53.6869414 C75.4567694,53.2309812 75.8426801,52.624304 76.1769075,52.0093522 C76.9051541,50.669645 77.4922605,49.2329403 77.9069794,47.7662893 C78.2267038,46.6355502 78.4311297,45.4695452 78.8490129,44.367636 C79.2648524,43.2711776 79.9203865,42.2911555 80.9396153,41.6700305 C82.048367,40.9943321 83.3192882,40.638456 84.5364825,40.2138213 C85.7429973,39.7929956 86.9286806,39.2786532 87.8639241,38.385712 C88.0695366,38.189353 88.269282,37.9807133 88.4348135,37.7495481 C88.5654721,37.5670459 88.6946144,37.2176712 88.8937005,37.1019573 C89.203207,36.9219506 89.6549084,37.39006 89.9225541,37.560019 C91.2429831,38.3986494 92.3446151,39.5682663 93.2331195,40.8459792 C94.1166797,42.1167309 94.841683,43.3394764 95.430833,44.7584496 C95.8678337,45.8108422 96.1405685,47.158627 96.9091597,48.0210964 C97.2522867,48.4061965 99.8028308,48.6391716 100.628972,48.3029602 C101.455114,47.9667489 102.380997,47.0937432 102.658267,46.5466304 C102.942129,45.9866459 103.009964,45.371497 102.888666,44.7584496 C102.817338,44.3977794 102.671649,44.0608825 102.591949,43.7066481 C102.52484,43.4090887 102.463927,43.1278158 102.319095,42.8552117 C102.044594,42.3386363 101.575621,41.9673273 101.010071,41.8120789 C101.598628,41.2694318 102.086323,40.6202648 102.42378,39.8945901 C102.774422,39.1406764 103.071601,38.2238307 103.155916,37.3963645 C103.224476,36.7242781 103.11867,36.0279587 102.750756,35.4503742 C102.36478,34.844485 101.681031,34.4492057 101.089442,34.0712638 C101.993108,33.3642399 102.766512,32.5043974 103.402335,31.5524173 C104.638845,29.7011258 105.403678,27.3675397 104.7757,25.1604378 Z" id="hair" fill="#191847"></path>
                </g>
                <g id="Bottom/Standing/Skinny-Jeans-Walk" transform="translate(0.000000, 187.000000)">
                    <polygon id="Leg" fill="#1F28CF" points="128 0 176.081639 127.226909 209.783329 221 229 221 182.673688 9.81437154e-14"></polygon>
                    <path d="M116.116628,0 C115.593979,43.6541888 115.971833,102.427468 114.754071,105.148648 C113.942229,106.962768 88.6908725,127.632305 39,167.157257 L48.9049803,184 C107.899481,145.955797 138.9048,124.399339 141.920937,119.330628 C146.445143,111.72756 169.1744,41.763137 181,0 L116.116628,0 Z" id="Leg" fill="#2B44FF"></path>
                    <g id="Accessories/Shoe/Flat-Pointy" transform="translate(56.500000, 189.000000) rotate(50.000000) translate(-56.500000, -189.000000) translate(26.000000, 169.000000)" fill="#191847">
                        <path d="M0,40 L1,19 L22,19 C31.9576033,26 44.9576033,31.6666667 61,36 L61,40 L23,40 L10,38 L10,40 L0,40 Z" id="Shoe"></path>
                    </g>
                    <g id="Accessories/Shoe/Flat-Pointy" transform="translate(208.000000, 199.000000)" fill="#191847">
                        <path d="M0,40 L1,19 L22,19 C31.9576033,26 44.9576033,31.6666667 61,36 L61,40 L23,40 L10,38 L10,40 L0,40 Z" id="Shoe"></path>
                    </g>
                </g>
                <g id="Body/Long-Sleeve" transform="translate(22.000000, 82.000000)">
                    <path d="M192,65.3107899 L231.482876,59.9251648 C239.381053,55.5320264 246.646993,52.5579486 253.280695,51.0029313 C255.147488,50.9484265 258.117196,51.6270536 253.693154,55.3151968 C249.269111,59.00334 244.780296,63.0831966 245.568527,65.0514942 C246.356757,67.0197919 250.471061,66.2874533 251.152638,69.3148625 C251.607023,71.3331352 244.929759,71.6610844 231.120845,70.2987101 L199.083874,83 L192,65.3107899 Z" id="Arm" fill="#997659"></path>
                    <path d="M123.473568,9.66927317 L140.652814,9.31280705 C148.188654,47.0006412 173.203746,69.0336905 223.790464,56.4079457 L234.893349,104.819132 C187.489073,115.210412 143.760505,99.6935282 130.595778,48.4746485 C127.187846,35.2156986 124.201379,21.3681777 123.473568,9.66927317 Z" id="Clothes-Back" fill="#E87613" transform="translate(179.183459, 58.591470) rotate(5.000000) translate(-179.183459, -58.591470) "></path>
                    <path d="M78.8667995,78.4148135 C51.5407287,124.755001 36.5101958,149.66041 33.7752008,153.131039 C31.7696,155.676088 19.5624969,162.108528 11.3165875,165.51364 C8.00679121,166.880406 8.66362703,169.669316 9.61158602,170.574442 C17.3220724,177.93653 24.5413634,172.703518 32.9820362,170.762666 C42.2295183,168.636296 39.168909,179.540177 46.4744193,177.973065 C45.4019975,172.946891 42.428202,163.386078 45.8838573,158.257952 C47.4197041,155.978784 65.5479499,130.908774 100.268595,83.0479211 L78.8667995,78.4148135 Z" id="Arm" fill="#B28B67" transform="translate(54.555449, 128.271299) rotate(-12.000000) translate(-54.555449, -128.271299) "></path>
                    <path d="M88,112 L167,112 C159.700025,79.150459 145.467604,50.6444246 145.467604,5.96527657 L119.421219,0 C100.692766,28.8433471 91.6984582,64.3553473 88,112 Z" id="Clothes-Body" fill="#FF9B21"></path>
                    <path d="M88,112 L111.102445,112 C105.60644,90.100306 105.712698,54.4336393 111.421219,5 C94.8192901,33.8433471 91.2785163,64.3553473 88,112 Z" id="Clothes-Body" fill-opacity="0.1" fill="#000000"></path>
                    <path d="M117.775873,0 C79.4301113,34.6639633 54.3053653,83.6639633 42.4016357,147 L94.9322404,147 C96.3397656,93.6698222 103.504538,46.5945993 124.426559,5.77433139 L119.477154,0 L117.775873,0 Z" id="Clothes-Front" fill="#FF9B21"></path>
                </g>
            </g>
            <g id="Group-9" transform="translate(600.000000, 1.000000)">
                <g id="Head/Front/Chongo" transform="translate(123.000000, 68.000000) rotate(-15.000000) translate(-123.000000, -68.000000) translate(55.000000, 16.000000)">
                    <g id="Head" stroke-width="1" transform="translate(56.000000, 31.000000)" fill="#B28B67">
                        <polygon id="Neck" points="9.48548113e-17 73 10.0838263 26 17.3565406 26 24 73"></polygon>
                        <path d="M35.7603014,49.2634576 C28.2710248,51.1939193 -0.444777553,36.4259284 1.05677633,15.0254539 C2.55833022,-6.37502057 32.3485306,-1.66718886 38.1433414,9.13393292 C43.9381521,19.9350547 43.249578,47.3329958 35.7603014,49.2634576 Z"></path>
                    </g>
                    <path d="M84.6634951,28.3699763 C81.3840534,27.3699763 76.6234565,27.0308443 74.6208149,27.2602642 C75.7600087,24.5308439 76.2120576,21.4899413 75.8435286,18.5290858 C75.4853344,15.6520661 74.1997702,13.2023672 73.0108165,10.6353788 C72.4627695,9.45216518 71.8416903,8.27540043 70.9156982,7.37037661 C69.972405,6.44834378 68.7783223,5.83972796 67.5262119,5.54936581 C66.2448581,5.2521517 64.9050174,5.27689939 63.6216732,5.54662502 C63.0539519,5.66592985 62.5445644,5.92549845 61.9877902,6.0697928 C61.4176191,6.21763405 61.141031,5.86076752 60.7271824,5.50212755 C59.7298424,4.63797369 58.2677456,4.21137833 57.0059895,4.0587004 C55.5903607,3.88748186 54.1214506,4.10102137 52.7713517,4.56639079 C51.457233,5.01942668 50.1947879,5.75508602 49.2446815,6.82681415 C48.8216464,7.30387223 48.4376536,7.8468704 48.188089,8.44637714 C48.0857368,8.69240304 48.0688185,8.83814839 47.8233112,8.9282719 C47.5962532,9.01170466 47.3306889,9.014123 47.0963584,9.0935252 C44.8305256,9.86094542 42.8932607,11.6116631 41.8384289,13.8595111 C41.2230147,15.1708968 40.9314987,17.4797836 41.0113441,20.0676663 C41.0911894,22.655549 43.4279109,29.4080735 45.613439,31.8710732 C47.5642539,34.0695065 50.4317213,35.5202692 53.1990566,36.1553256 C51.36223,38.2548487 50.1395162,40.8784262 49.2353419,43.5466625 C48.2532361,46.4450442 47.6454006,49.4566043 47.4209456,52.525076 C47.2077438,55.4404668 47.187993,58.5235291 47.8714634,61.3766879 C48.5108389,64.0448435 49.8781623,66.233684 52.1607604,67.6222954 C53.2063292,68.2583997 54.331284,68.7362639 55.4627459,69.1730163 C56.5778253,69.6034004 57.6962731,70.021854 58.8643276,70.2633656 C61.0749653,70.7202709 63.6221325,70.641836 65.3249903,68.8822511 C65.9387204,68.2479202 66.6136933,67.450835 67.0614552,66.675918 C67.2224473,66.3972445 67.3195173,66.2149822 67.1239229,65.9425963 C66.8895924,65.6163621 66.5105756,65.3663863 66.2095669,65.1111707 C64.493006,63.6560549 63.4304424,61.7134822 63.1625814,59.4049338 C62.8908162,57.0626093 63.5200101,54.03928 65.7973259,53.0170472 C68.6084499,51.7551569 71.7042766,53.2035819 74.2028323,54.5537417 C75.264707,50.805958 77.4450295,47.4314855 80.8633764,45.7123675 C84.6451998,43.8105035 88.9847925,43.5879355 92.871188,41.9561196 C93.8839153,41.5308947 94.9153983,41.0481938 95.6610301,40.1817828 C95.9726032,39.8196765 96.3381465,39.3499541 96.4625461,38.871042 C96.625988,38.2419509 96.220254,37.7145107 95.9068437,37.2240711 C94.2450186,34.623629 87.9429367,29.3699763 84.6634951,28.3699763 Z" id="hair" fill="#191847"></path>
                </g>
                <g id="Bottom/Standing/Skinny-Jeans" transform="translate(0.000000, 202.000000)">
                    <polygon id="Leg" fill="#191847" points="128 9.9475983e-14 164.254962 127.226909 190.706957 221 210 221 181.890974 9.9475983e-14"></polygon>
                    <path d="M118.304342,0 C117.465768,65.5742244 114.606247,101.340188 113.725779,107.297892 C112.845311,113.255595 99.5321718,151.156298 73.7863613,221 L93.7726468,221 C126.549033,153.996902 144.845651,116.096199 148.662499,107.297892 C152.479348,98.4995844 164.258515,62.7336205 182,0 L118.304342,0 Z" id="Leg" fill="#2F3676"></path>
                    <g id="Accessories/Shoe/Flat-Pointy" transform="translate(72.000000, 199.000000)" fill="#191847">
                        <path d="M0,40 L1,19 L22,19 C31.9576033,26 44.9576033,31.6666667 61,36 L61,40 L23,40 L10,38 L10,40 L0,40 Z" id="Shoe"></path>
                    </g>
                    <g id="Accessories/Shoe/Flat-Pointy" transform="translate(188.000000, 199.000000)" fill="#191847">
                        <path d="M0,40 L1,19 L22,19 C31.9576033,26 44.9576033,31.6666667 61,36 L61,40 L23,40 L10,38 L10,40 L0,40 Z" id="Shoe"></path>
                    </g>
                </g>
                <g id="Body/Lab-Coat" transform="translate(149.000000, 191.500000) rotate(-10.000000) translate(-149.000000, -191.500000) translate(21.000000, 98.000000)">
                    <path d="M189.954033,89 L220.582692,114.060924 C229.100127,116.844986 236.166234,120.123776 241.781013,123.897294 C243.084887,125.216747 244.607346,127.830261 238.95157,127.095963 C233.295793,126.361665 227.313741,125.843655 226.428687,127.739495 C225.543633,129.635336 228.858658,132.131755 227.13781,134.662138 C225.990579,136.34906 221.230921,131.718965 212.858838,120.771852 L182,106.03803 L189.954033,89 Z" id="Arm" fill="#B28B67" transform="translate(212.500000, 112.000000) rotate(1.000000) translate(-212.500000, -112.000000) "></path>
                    <path d="M122.979272,9.21054221 L133.596123,4.63843187 C151.668356,40.3896079 176.923065,74.3010145 216.52753,101.346035 L208.768287,117.911928 C174.615844,101.621394 142.570612,89.4491188 127.58307,61.8321985 C122.552864,52.5632462 123.64558,20.7613641 122.979272,9.21054221 Z" id="Clothes-Back" fill="#C5CFD6" transform="translate(169.753401, 61.275180) rotate(5.000000) translate(-169.753401, -61.275180) "></path>
                    <path d="M56.7406441,78.7252545 C39.6836912,116.472989 29.7877173,137.082171 27.0527223,140.552801 C25.0471215,143.09785 12.8400185,149.530289 4.594109,152.935401 C1.28431275,154.302167 1.94114857,157.091078 2.88910756,157.996203 C10.5995939,165.358291 17.818885,160.125279 26.2595578,158.184427 C35.5070398,156.058057 32.4464306,166.961938 39.7519409,165.394826 C38.679519,160.368652 35.7057235,150.80784 39.1613789,145.679713 C40.6972257,143.400546 52.3867157,122.349547 74.2298488,82.5267153 L56.7406441,78.7252545 Z" id="Arm" fill="#B28B67" transform="translate(38.174837, 122.137400) rotate(-4.000000) translate(-38.174837, -122.137400) "></path>
                    <path d="M108.013089,-5.76832382 C67.2910302,28.8956395 44.1230427,77.8956395 38.5091262,141.231676 L58.0740409,143.425152 C68.3640978,89.3604122 86.5091262,57.5703247 112.509126,48.0548898 L108.013089,-5.76832382 Z" id="Clothes-Front" fill="#DDE3E9" transform="translate(75.509126, 68.828414) rotate(8.000000) translate(-75.509126, -68.828414) "></path>
                    <path d="M90,110 C121.438326,113.333333 146.183737,113.333333 164.236234,110 C166.472817,109.587022 166.825667,105.842388 165.788454,103.300966 C149.636353,63.7244027 138.560302,29.1916266 138.560302,1.70263734 C135.596594,3.1967882 130.409827,3.42070538 123,2.37438888 C103.086202,30.7026762 93.9325378,63.2061447 90,110 Z" id="Clothes-Body" fill="#323337"></path>
                    <path d="M51.3853184,215.605966 L153.190593,215.605966 C134.375512,165.262588 128.280769,11.364871 126.348425,-1.42108547e-14 L116.531583,-8.22658702e-15 C96.1738198,47.0250157 54.8666745,142.861181 51.3853184,215.605966 Z" id="Clothes-Body" fill="#DDE3E9"></path>
                </g>
            </g>
            <g id="Group-8" transform="translate(900.000000, 0.000000)">
                <g id="Head/Front/Hijab" transform="translate(173.000000, 68.000000) rotate(15.000000) translate(-173.000000, -68.000000) translate(105.000000, 16.000000)">
                    <g id="Head" transform="translate(56.000000, 31.000000)" fill="#B28B67">
                        <polygon id="Neck" points="9.48548113e-17 73 10.0838263 26 17.3565406 26 24 73"></polygon>
                        <path d="M35.7603014,49.2634576 C28.2710248,51.1939193 -0.444777553,36.4259284 1.05677633,15.0254539 C2.55833022,-6.37502057 32.3485306,-1.66718886 38.1433414,9.13393292 C43.9381521,19.9350547 43.249578,47.3329958 35.7603014,49.2634576 Z"></path>
                    </g>
                    <g id="Hijab" transform="translate(38.000000, 28.000000)">
                        <path d="M50.7350002,5.01147183 C50.1852708,4.68336774 49.0351409,3.99129844 48.4524743,3.74047035 C48.3145899,3.68011316 47.3491609,2.99135428 47.3231986,3.00008224 C46.5922497,3.24668063 44.475629,4.157139 44.2939574,4.94386372 C44.2657992,5.00348239 44.2381578,5.05940846 44.2112267,5.10828502 C43.9113039,5.65351385 43.6361163,6.21230459 43.373587,6.77787628 C42.7975078,8.01939475 42.3002198,9.31697358 41.8252774,10.6043474 C40.9001924,13.1115541 40.0965233,15.677171 39.3576307,18.2486288 C38.6053695,20.8663449 37.9669033,23.5146088 37.2521648,26.1431341 C36.2236827,29.9254283 34.9073547,33.6149377 33.8859767,37.3956877 C33.2337544,39.8097738 32.8709924,42.2521922 33.0422662,44.7368405 C33.0439454,44.7667169 33.0449141,44.7961906 33.0476266,44.826537 C33.0486599,44.8389576 33.0502099,44.8512438 33.0513078,44.8636644 C33.0804347,45.2456133 33.1219615,45.6285021 33.177309,46.0125322 C33.2257461,46.3409049 33.2743124,46.670486 33.3261079,47 C34.2590719,45.1396022 34.9713564,43.0896733 35.7272342,41.1440101 C35.8011816,40.9535392 35.8717061,40.7616583 35.940616,40.5691733 C36.1843517,40.1746025 36.4328666,39.7828514 36.6841585,39.3925774 C38.2688928,36.9315618 39.8598917,34.4796098 41.3795265,31.9740815 C44.1128024,27.4677025 46.8205682,22.8660544 50.061078,18.727928 C51.0179377,17.5059467 51.9970785,16.302697 52.9419258,15.0707121 C53.4795781,14.3696557 54.0032806,13.6568501 54.5099977,12.9313553 C54.872243,12.4125789 56.4471311,10.6043474 55.8768295,9.51791803 C55.585039,8.96205474 52.1610544,5.8627163 50.7350002,5.01147183 Z" id="Fill-1" fill="#2C2C2C"></path>
                        <path d="M48.6260171,3.83116599 C49.1606177,4.01081921 48.9005286,2.8983607 48.3827244,2.5068843 C45.9838484,0.693257683 36.8126531,0.035129961 28.8316831,1.69188377 C23.4851811,2.80175357 17.2670643,5.56416284 12.9966544,9.11545816 C9.14699464,12.3169592 6.49948445,17.4491331 5.13642247,22.407675 C3.70525344,27.6142408 3.48849539,33.0422873 4.28584125,38.381368 C4.46101123,39.5541291 4.83740954,40.6717368 5.04712657,41.8196221 C5.28329677,43.1122936 5.40444175,44.3568809 5.8254551,45.6145396 C6.08327479,46.3844871 6.52139715,47.1392958 6.74137959,47.9136449 C6.99248728,48.7972339 6.8394274,49.6146653 6.65629515,50.5133931 C6.35787446,51.9781941 5.98785913,53.4399939 5.46202016,54.8389709 C4.67237336,56.9397371 3.71413697,58.9072548 3.11334736,61.0872499 C2.31396158,63.9879079 -1.02991389,73.427136 1.41378875,76 L47.9323913,76 C46.761016,72.8047679 43.2449088,69.0442856 42.533108,65.623838 C42.1138713,63.608903 41.9144197,59.2085647 41.8705285,59.0486397 C40.8222264,51.8223372 38.7753261,48.3714635 37.4933414,47.1190983 C36.2113566,45.8667332 34.5038477,45.4816245 34.4158679,44.3952949 C34.0522355,39.9023228 35.8388772,35.5973526 37.1489671,31.4041565 C38.710362,26.4065336 39.854626,21.2849322 41.464321,16.3042488 C42.1771089,14.098711 45.8502346,2.8983607 48.6260171,3.83116599 Z" id="Path" fill="#758EE6"></path>
                        <path d="M21,16 C21.6820854,15.8886576 22.2541073,15.9347205 23,16 C22.8238421,16.7347544 22.6454528,17.5431025 23,18 C22.5857283,19.300133 22.5996466,20.5699153 23,22 C22.7831981,24.4919723 23.133965,27.1161533 24,30 C25.0618106,34.1526567 27.2301877,38.4948455 30,42 C31.0008663,42.9096488 31.8113939,43.7916171 33,45 C32.8665044,45.0227789 33.2214533,45.4138112 33,46 C32.5687315,46.0870547 32.2857918,46.0098137 32,46 C31.238588,45.5092896 30.4352482,44.3520834 30,44 C29.1028829,42.9451179 28.3531252,42.1533311 28,41 C24.7816806,37.6001377 22.8003836,32.8356716 22,28 C21.3828097,25.9496271 21.1676317,23.6657891 21,21 C21.0379891,20.6175204 21.0372049,19.8868827 21,19 C21.0573309,18.4206455 20.8114412,16.7822925 21,16 Z M12,33 C11.0311183,32.2558176 6.75204631,23.4799614 8,23 C9.19775625,22.7788284 9.2490382,24.8612578 9,25 C9.65793749,26.4566847 12.8000642,32.2246348 13.5821627,33.7694057 C14.9399555,35.593057 15.5368256,37.2829112 17,38 C18.4658389,39.6596523 20.1855281,40.6456877 22,42 C22.1684087,41.8336887 23.4830093,42.3239172 23,43 C22.3822558,43.2850177 21.2298974,42.3826586 21,42 C20.0360742,41.6874401 19.2385558,41.197346 18,41 C15.4593214,38.8761202 13.2818406,36.3656314 12,33 Z M13,48 C13.562321,47.6042778 14.8680184,49.1097086 15,49 C16.2028065,50.1156169 17.1768324,50.7803177 18,51 C19.9839511,52.5929006 21.8798822,53.6384857 24,55 C27.3662101,56.5703858 30.6405014,58.524354 33,62 C33.7568357,61.938847 35.1500602,63.1201307 35,64 C34.7584211,64.5056159 34.0194169,63.4617957 34,63 C32.5761131,61.8095542 31.207705,60.3764829 30,59 C26.5172867,56.9087825 22.8822332,55.376748 20,53 C18.3393733,52.6045356 17.1390018,51.8461661 16,51 C15.6183144,50.7673754 12.4631926,48.7305238 13,48 Z M32,9 C32.2140103,8.60289653 31.9313195,10.2953011 32,10 C31.8105925,11.1588756 31.7167193,11.8479318 32,13 C31.4377773,13.9189459 31.2546212,15.3038213 31,17 C30.9958004,18.1991566 30.8828005,19.708224 31,21 C30.7191536,22.0599794 30.6597847,22.9016728 31,24 C30.5827428,24.0766222 30.7216783,25.3459919 30,25 C29.8253304,24.7062678 30.1796311,22.9673824 30,23 C30.2471096,21.9034299 30.294314,21.1897742 30,20 C30.4400585,19.0063707 30.5376806,17.5341034 31,16 C30.8212895,14.9031318 30.9639737,13.7393881 31,13 C31.1957879,12.0247709 31.2712996,11.4725049 31,11 C31.4151314,10.4371968 31.3288323,9.45586206 32,9 Z" id="Combined-Shape" fill="#657BC7"></path>
                    </g>
                </g>
                <g id="Bottom/Standing/Sprint" transform="translate(0.000000, 203.000000)">
                    <path d="M207.469522,-9.65840194 C188.34471,5.93412613 195.620321,142.644251 194.343793,144.365431 C193.776447,145.1304 163.468239,151.639612 103.419169,163.893066 L106.01112,174.474064 C176.253239,170.987921 213.421261,166.637951 217.515185,161.424153 C223.376511,153.959489 230.620797,112.212202 239.248044,36.1822931 L207.469522,-9.65840194 Z" id="Leg" fill="#B28B67" transform="translate(171.333606, 82.407831) rotate(-55.000000) translate(-171.333606, -82.407831) "></path>
                    <path d="M113.540088,152.75781 L118.105527,169.799273 C170.465638,175.811529 204.983252,168.36956 217.132934,156.81223 C225.232723,149.107343 232.495664,107.473517 238.921759,31.9107522 L204.926407,-16.6396419 C159.401042,17.7063231 186.537309,130.140454 185.373895,132.713083 C184.210481,135.285712 156.597106,137.319958 113.540088,152.75781 Z" id="Pant" fill="#2F3676" transform="translate(176.230924, 77.646617) rotate(-55.000000) translate(-176.230924, -77.646617) "></path>
                    <g id="Accessories/Shoe/Flat-Sneaker" transform="translate(223.383915, 187.279121) rotate(20.000000) translate(-223.383915, -187.279121) translate(192.883915, 167.279121)" fill="#E4E4E4">
                        <path d="M2.67813181,25.4019242 C1.55937727,28.3884109 1,30.6229931 1,32.1056708 C1,33.908957 1.3004142,36.5404001 1.90124261,40 C3.99318117,40 22.7937852,40 58.3030548,40 C59.768738,35.1545073 58.9226607,32.5385816 55.7648228,32.1522232 C52.606985,31.7658647 49.9837155,31.4170139 47.8950143,31.1056708 L21.6799926,19.4188835 C21.1755635,19.1940064 20.584344,19.4206282 20.359467,19.9250573 C20.35562,19.9336867 20.3518954,19.9423702 20.3482945,19.9511052 L18.6632131,24.038695 C15.7398812,25.4026522 13.3643706,26.0846307 11.5366811,26.0846307 C10.0517269,26.0846307 8.00099246,25.4849054 5.38447792,24.2854549 L5.38448339,24.285443 C4.38038273,23.8251478 3.19325534,24.2659892 2.73296014,25.2700899 C2.71312074,25.3133681 2.69483298,25.3573409 2.67813181,25.4019242 Z" id="shoe"></path>
                    </g>
                    <polygon id="Leg" fill="#997659" points="130 0 78.2540376 124.226909 27.3958106 229.25029 39.3949124 229.25029 170.673688 0"></polygon>
                    <g id="Accessories/Shoe/Flat-Sneaker" transform="translate(24.000000, 199.000000)" fill="#E4E4E4">
                        <path d="M2.67813181,25.4019242 C1.55937727,28.3884109 1,30.6229931 1,32.1056708 C1,33.908957 1.3004142,36.5404001 1.90124261,40 C3.99318117,40 22.7937852,40 58.3030548,40 C59.768738,35.1545073 58.9226607,32.5385816 55.7648228,32.1522232 C52.606985,31.7658647 49.9837155,31.4170139 47.8950143,31.1056708 L21.6799926,19.4188835 C21.1755635,19.1940064 20.584344,19.4206282 20.359467,19.9250573 C20.35562,19.9336867 20.3518954,19.9423702 20.3482945,19.9511052 L18.6632131,24.038695 C15.7398812,25.4026522 13.3643706,26.0846307 11.5366811,26.0846307 C10.0517269,26.0846307 8.00099246,25.4849054 5.38447792,24.2854549 L5.38448339,24.285443 C4.38038273,23.8251478 3.19325534,24.2659892 2.73296014,25.2700899 C2.71312074,25.3133681 2.69483298,25.3573409 2.67813181,25.4019242 Z" id="shoe"></path>
                    </g>
                    <path d="M31.9885488,207.432889 L58.6506859,212.432889 C79.2657755,182.124875 165.540767,57.851839 175,2.84217094e-14 L115.644073,2.84217094e-14 C84.0548806,41.821022 51.6389867,176.623522 31.9885488,207.432889 Z" id="Pant" fill="#5C63AB"></path>
                </g>
                <g id="Body/Long-Sleeve" transform="translate(150.000000, 191.500000) rotate(10.000000) translate(-150.000000, -191.500000) translate(22.000000, 98.000000)">
                    <path d="M192,65.3107899 L231.482876,59.9251648 C239.381053,55.5320264 246.646993,52.5579486 253.280695,51.0029313 C255.147488,50.9484265 258.117196,51.6270536 253.693154,55.3151968 C249.269111,59.00334 244.780296,63.0831966 245.568527,65.0514942 C246.356757,67.0197919 250.471061,66.2874533 251.152638,69.3148625 C251.607023,71.3331352 244.929759,71.6610844 231.120845,70.2987101 L199.083874,83 L192,65.3107899 Z" id="Arm" fill="#997659"></path>
                    <path d="M123.473568,9.66927317 L140.652814,9.31280705 C148.188654,47.0006412 173.203746,69.0336905 223.790464,56.4079457 L234.893349,104.819132 C187.489073,115.210412 143.760505,99.6935282 130.595778,48.4746485 C127.187846,35.2156986 124.201379,21.3681777 123.473568,9.66927317 Z" id="Clothes-Back" fill="#AFB9C5" transform="translate(179.183459, 58.591470) rotate(5.000000) translate(-179.183459, -58.591470) "></path>
                    <path d="M78.8667995,78.4148135 C51.5407287,124.755001 36.5101958,149.66041 33.7752008,153.131039 C31.7696,155.676088 19.5624969,162.108528 11.3165875,165.51364 C8.00679121,166.880406 8.66362703,169.669316 9.61158602,170.574442 C17.3220724,177.93653 24.5413634,172.703518 32.9820362,170.762666 C42.2295183,168.636296 39.168909,179.540177 46.4744193,177.973065 C45.4019975,172.946891 42.428202,163.386078 45.8838573,158.257952 C47.4197041,155.978784 65.5479499,130.908774 100.268595,83.0479211 L78.8667995,78.4148135 Z" id="Arm" fill="#B28B67" transform="translate(54.555449, 128.271299) rotate(-12.000000) translate(-54.555449, -128.271299) "></path>
                    <path d="M88,112 L167,112 C159.700025,79.150459 145.467604,50.6444246 145.467604,5.96527657 L119.421219,0 C100.692766,28.8433471 91.6984582,64.3553473 88,112 Z" id="Clothes-Body" fill="#C5CFD6"></path>
                    <path d="M88,112 L111.102445,112 C105.60644,90.100306 105.712698,54.4336393 111.421219,5 C94.8192901,33.8433471 91.2785163,64.3553473 88,112 Z" id="Clothes-Body" fill-opacity="0.1" fill="#000000"></path>
                    <path d="M117.775873,0 C79.4301113,34.6639633 54.3053653,83.6639633 42.4016357,147 L94.9322404,147 C96.3397656,93.6698222 103.504538,46.5945993 124.426559,5.77433139 L119.477154,0 L117.775873,0 Z" id="Clothes-Front" fill="#C5CFD6"></path>
                </g>
            </g>
            <g id="Group-6" transform="translate(1200.000000, 16.000000)">
                <g id="Head/Front/No-Hair" transform="translate(82.000000, 0.000000)" fill="#B28B67">
                    <g id="Head" transform="translate(56.000000, 31.000000)">
                        <polygon id="Neck" points="9.48548113e-17 73 10.0838263 26 17.3565406 26 24 73"></polygon>
                        <path d="M35.7603014,49.2634576 C28.2710248,51.1939193 -0.444777553,36.4259284 1.05677633,15.0254539 C2.55833022,-6.37502057 32.3485306,-1.66718886 38.1433414,9.13393292 C43.9381521,19.9350547 43.249578,47.3329958 35.7603014,49.2634576 Z"></path>
                    </g>
                </g>
                <g id="Bottom/Standing/Sprint" transform="translate(0.000000, 187.000000)">
                    <path d="M207.469522,-9.65840194 C188.34471,5.93412613 195.620321,142.644251 194.343793,144.365431 C193.776447,145.1304 163.468239,151.639612 103.419169,163.893066 L106.01112,174.474064 C176.253239,170.987921 213.421261,166.637951 217.515185,161.424153 C223.376511,153.959489 230.620797,112.212202 239.248044,36.1822931 L207.469522,-9.65840194 Z" id="Leg" fill="#B28B67" transform="translate(171.333606, 82.407831) rotate(-55.000000) translate(-171.333606, -82.407831) "></path>
                    <path d="M113.540088,152.75781 L118.105527,169.799273 C170.465638,175.811529 204.983252,168.36956 217.132934,156.81223 C225.232723,149.107343 232.495664,107.473517 238.921759,31.9107522 L204.926407,-16.6396419 C159.401042,17.7063231 186.537309,130.140454 185.373895,132.713083 C184.210481,135.285712 156.597106,137.319958 113.540088,152.75781 Z" id="Pant" fill="#2F3676" transform="translate(176.230924, 77.646617) rotate(-55.000000) translate(-176.230924, -77.646617) "></path>
                    <g id="Accessories/Shoe/Flat-Sneaker" transform="translate(223.383915, 187.279121) rotate(20.000000) translate(-223.383915, -187.279121) translate(192.883915, 167.279121)" fill="#E4E4E4">
                        <path d="M2.67813181,25.4019242 C1.55937727,28.3884109 1,30.6229931 1,32.1056708 C1,33.908957 1.3004142,36.5404001 1.90124261,40 C3.99318117,40 22.7937852,40 58.3030548,40 C59.768738,35.1545073 58.9226607,32.5385816 55.7648228,32.1522232 C52.606985,31.7658647 49.9837155,31.4170139 47.8950143,31.1056708 L21.6799926,19.4188835 C21.1755635,19.1940064 20.584344,19.4206282 20.359467,19.9250573 C20.35562,19.9336867 20.3518954,19.9423702 20.3482945,19.9511052 L18.6632131,24.038695 C15.7398812,25.4026522 13.3643706,26.0846307 11.5366811,26.0846307 C10.0517269,26.0846307 8.00099246,25.4849054 5.38447792,24.2854549 L5.38448339,24.285443 C4.38038273,23.8251478 3.19325534,24.2659892 2.73296014,25.2700899 C2.71312074,25.3133681 2.69483298,25.3573409 2.67813181,25.4019242 Z" id="shoe"></path>
                    </g>
                    <polygon id="Leg" fill="#997659" points="130 0 78.2540376 124.226909 27.3958106 229.25029 39.3949124 229.25029 170.673688 0"></polygon>
                    <g id="Accessories/Shoe/Flat-Sneaker" transform="translate(24.000000, 199.000000)" fill="#E4E4E4">
                        <path d="M2.67813181,25.4019242 C1.55937727,28.3884109 1,30.6229931 1,32.1056708 C1,33.908957 1.3004142,36.5404001 1.90124261,40 C3.99318117,40 22.7937852,40 58.3030548,40 C59.768738,35.1545073 58.9226607,32.5385816 55.7648228,32.1522232 C52.606985,31.7658647 49.9837155,31.4170139 47.8950143,31.1056708 L21.6799926,19.4188835 C21.1755635,19.1940064 20.584344,19.4206282 20.359467,19.9250573 C20.35562,19.9336867 20.3518954,19.9423702 20.3482945,19.9511052 L18.6632131,24.038695 C15.7398812,25.4026522 13.3643706,26.0846307 11.5366811,26.0846307 C10.0517269,26.0846307 8.00099246,25.4849054 5.38447792,24.2854549 L5.38448339,24.285443 C4.38038273,23.8251478 3.19325534,24.2659892 2.73296014,25.2700899 C2.71312074,25.3133681 2.69483298,25.3573409 2.67813181,25.4019242 Z" id="shoe"></path>
                    </g>
                    <path d="M31.9885488,207.432889 L58.6506859,212.432889 C79.2657755,182.124875 165.540767,57.851839 175,2.84217094e-14 L115.644073,2.84217094e-14 C84.0548806,41.821022 51.6389867,176.623522 31.9885488,207.432889 Z" id="Pant" fill="#5C63AB"></path>
                </g>
                <g id="Body/Pointing-Up" transform="translate(22.000000, 82.000000)">
                    <g id="Arm-Back" stroke-width="1" transform="translate(182.800858, 59.723713) rotate(15.000000) translate(-182.800858, -59.723713) translate(112.300858, 19.223713)">
                        <path d="M78.0695934,48.2493088 L114.943431,62.6188876 C123.904314,62.6346558 131.637783,63.5694233 138.143838,65.4231902 C139.791628,66.2751454 142.047193,68.2902789 136.44132,69.3396513 C130.835446,70.3890237 124.986102,71.7449228 124.730213,73.8214706 C124.474323,75.8980184 128.398536,77.2478556 127.543844,80.1861638 C126.974049,82.145036 121.016567,79.2123686 109.6714,71.3881618 L75.769899,66.9113695 L78.0695934,48.2493088 Z" id="Arm" fill="#997659"></path>
                        <path d="M13.8850521,0.140890764 C39.0469125,26.9309196 69.7359258,44.4125944 111.590884,59.9187291 L102.296174,78.504588 C59.1114796,74.432889 36.0241652,71.1809801 17.9249858,44.3496297 C13.3824587,37.6155047 5.26015079,14.4446448 0.394290923,2.41198197 L13.8850521,0.140890764 Z" id="Clothes-Back" fill="#2026A2"></path>
                    </g>
                    <path d="M90,114 L167,114 C149.558211,60.8053811 140.648283,24.2959016 140.270216,4.47156148 C140.250941,3.46089747 138.384379,1.67996472 137.55857,1.91319372 C131.519523,3.61877223 125.057267,2.98104099 118.1718,0 C99.917485,29.3584068 93.6048263,65.5045499 90,114 Z" id="Clothes-Shirt" fill="#F2F2F2"></path>
                    <path d="M81.3511268,138.605966 C96.0428359,138.605966 109.728284,138.605966 122.407472,138.605966 C156.38869,138.605966 147.786593,69.4321558 124.726763,-2.4158453e-13 C119.424647,-2.4158453e-13 115.448059,-2.4158453e-13 112.797001,-2.4158453e-13 C109.75441,-2.4158453e-13 108.462665,2.20627687 107.855955,3.37659428 C91.9680949,34.0236152 74.8304314,94.783947 81.3511268,138.605966 Z" id="Clothes-Jacket" fill="#1F28CF"></path>
                    <path d="M195.146203,-19.4679489 L232.02004,-5.09837004 C240.980924,-5.08260188 248.714393,-4.14783434 255.220447,-2.29406743 C256.868238,-1.44211231 259.123803,0.573021249 253.517929,1.62239362 C247.912055,2.67176599 242.062712,4.02766517 241.806822,6.10421296 C241.550933,8.18076075 245.475146,9.53059791 244.620453,12.4689061 C244.050658,14.4277783 238.093177,11.4951109 226.748009,3.6709041 L192.846509,-0.805888157 L195.146203,-19.4679489 Z" id="Arm" fill="#B28B67" transform="translate(224.969859, -3.205352) rotate(-38.000000) translate(-224.969859, 3.205352) "></path>
                    <path d="M123,0.0415620153 C144.901346,-1.687539e-13 181.518683,4.61351068 223.922675,-9 L228,11.3734803 C191.554706,34.8132838 154.573915,52.0854079 123.909162,42.1208823 C118.778342,40.4536197 126.575114,25.9388459 123,0.0415620153 Z" id="Clothes-Back" fill="#1F28CF"></path>
                </g>
            </g>
            <g id="Group-9" transform="translate(0.000000, 1.000000)">
                <g id="Head/Front/Long" transform="translate(123.000000, 68.000000) rotate(-15.000000) translate(-123.000000, -68.000000) translate(55.000000, 16.000000)">
                    <path d="M97,42.6904655 C100.475265,53.521956 106.048847,86.2040266 101.117269,91.0224659 L72.1172687,91.0224659 C70.5014749,62.9488237 86.1172687,73.8201946 86.1172687,47.3881316 C90.7514555,42.8602611 93.4752648,31.7047889 97,42.6904655 Z" id="Hair" fill="#191847"></path>
                    <rect id="Hair" fill="#191847" x="53" y="27" width="45" height="64" rx="21.5"></rect>
                    <g id="Head" stroke-width="1" transform="translate(56.000000, 31.000000)" fill="#B28B67">
                        <polygon id="Neck" points="9.48548113e-17 73 10.0838263 26 17.3565406 26 24 73"></polygon>
                        <path d="M35.7603014,49.2634576 C28.2710248,51.1939193 -0.444777553,36.4259284 1.05677633,15.0254539 C2.55833022,-6.37502057 32.3485306,-1.66718886 38.1433414,9.13393292 C43.9381521,19.9350547 43.249578,47.3329958 35.7603014,49.2634576 Z"></path>
                    </g>
                    <path d="M70.7499646,61.874834 C71.855742,73.75284 71.4127345,87.3172649 68.1172687,90.5371269 L39.1172687,90.5371269 C37.5014749,62.4634848 53.1172687,73.3348557 53.1172687,46.9027926 C54.0908529,45.9515442 55.0108111,45.0100255 55.9211179,44.1980592 L55.888877,43.4207004 C60.9105508,33.1402335 67.2813979,28 75.0014183,28 C86.581449,28 90.2365853,33.3883223 93.3486809,37.9630857 C91.0215226,45.9481754 81.9904303,47.1321867 73.9657406,52.1095118 C73.0198539,51.3410043 71.8137154,50.8804131 70.5,50.8804131 C67.4624339,50.8804131 65,53.3428469 65,56.3804131 C65,59.4179792 67.4624339,61.8804131 70.5,61.8804131 C70.5837722,61.8804131 70.6671069,61.8785402 70.7499646,61.874834 Z" id="Hair" fill="#191847"></path>
                </g>
                <g id="Bottom/Standing/Skirt" transform="translate(0.000000, 202.000000)">
                    <path d="M97.4078252,98.0880741 C121.397173,104.797924 142.094458,108.152849 159.499678,108.152849 C176.904899,108.152849 193.071673,102.986324 208,92.6532736 C184.524241,85.7662231 165.190908,82.3226979 150,82.3226979 C134.809092,82.3226979 117.278368,87.5778233 97.4078252,98.0880741 Z" id="Skirt-Shadow" fill="#1F28CF"></path>
                    <path d="M180.266835,117.824327 C180.035521,117.476585 179.840175,117.098311 179.685231,116.688552 C176.478637,108.208488 125.116885,16.7255336 120,0 L177.826087,0 C181.716527,12.7166594 199.227018,92.5197596 201.69132,108.441654 C209.466648,133.556719 225.475271,214.895245 227.518903,220.530129 C229.66877,226.457932 217.572184,232.63317 214.348729,225.345671 C209.219667,213.750031 196.998649,181.665102 191.557135,162.074268 C186.455728,143.707903 182.301821,127.184501 180.266835,117.824327 Z" id="Leg" fill="#997659"></path>
                    <path d="M132.957062,128.993595 C109.475313,134.928474 23.5840287,145.657684 17.6897926,147.340533 C11.6264626,149.07166 6.31008232,136.573779 13.8046857,133.866526 C25.7298651,129.558829 58.589132,119.605712 78.5118243,115.544042 C94.5364316,112.27708 109.159082,109.611243 118.976345,108.050159 C118.144649,80.4734403 114.342756,14.2935455 116.834687,1.42108547e-14 L168,1.42108547e-14 C165.610405,13.7065491 145.410112,113.717714 141.6556,123.728549 C140.464101,127.302484 136.908919,128.8819 132.957062,128.993595 Z" id="Leg" fill="#B28B67"></path>
                    <g id="Accessories/Shoe/Flat-Sneaker" transform="translate(24.500000, 157.000000) rotate(80.000000) translate(-24.500000, -157.000000) translate(-6.000000, 137.000000)" fill="#E4E4E4">
                        <path d="M2.67813181,25.4019242 C1.55937727,28.3884109 1,30.6229931 1,32.1056708 C1,33.908957 1.3004142,36.5404001 1.90124261,40 C3.99318117,40 22.7937852,40 58.3030548,40 C59.768738,35.1545073 58.9226607,32.5385816 55.7648228,32.1522232 C52.606985,31.7658647 49.9837155,31.4170139 47.8950143,31.1056708 L21.6799926,19.4188835 C21.1755635,19.1940064 20.584344,19.4206282 20.359467,19.9250573 C20.35562,19.9336867 20.3518954,19.9423702 20.3482945,19.9511052 L18.6632131,24.038695 C15.7398812,25.4026522 13.3643706,26.0846307 11.5366811,26.0846307 C10.0517269,26.0846307 8.00099246,25.4849054 5.38447792,24.2854549 L5.38448339,24.285443 C4.38038273,23.8251478 3.19325534,24.2659892 2.73296014,25.2700899 C2.71312074,25.3133681 2.69483298,25.3573409 2.67813181,25.4019242 Z" id="shoe"></path>
                    </g>
                    <g id="Accessories/Shoe/Flat-Sneaker" transform="translate(208.000000, 199.000000)" fill="#E4E4E4">
                        <path d="M2.67813181,25.4019242 C1.55937727,28.3884109 1,30.6229931 1,32.1056708 C1,33.908957 1.3004142,36.5404001 1.90124261,40 C3.99318117,40 22.7937852,40 58.3030548,40 C59.768738,35.1545073 58.9226607,32.5385816 55.7648228,32.1522232 C52.606985,31.7658647 49.9837155,31.4170139 47.8950143,31.1056708 L21.6799926,19.4188835 C21.1755635,19.1940064 20.584344,19.4206282 20.359467,19.9250573 C20.35562,19.9336867 20.3518954,19.9423702 20.3482945,19.9511052 L18.6632131,24.038695 C15.7398812,25.4026522 13.3643706,26.0846307 11.5366811,26.0846307 C10.0517269,26.0846307 8.00099246,25.4849054 5.38447792,24.2854549 L5.38448339,24.285443 C4.38038273,23.8251478 3.19325534,24.2659892 2.73296014,25.2700899 C2.71312074,25.3133681 2.69483298,25.3573409 2.67813181,25.4019242 Z" id="shoe"></path>
                    </g>
                    <path d="M117,3.55271368e-15 C139.546839,-6.45073907 160.880173,-6.45073907 181,3.55271368e-15 C188,31.9374682 205.00894,44.6134741 208,93.5789257 C174,110.472724 132,81.5304571 97,98.005311 C87,74.9611073 101,19.4645181 117,3.55271368e-15 Z" id="Skirt" fill="#2B44FF"></path>
                </g>
                <g id="Body/Pointing-Forward" transform="translate(149.000000, 191.500000) rotate(-10.000000) translate(-149.000000, -191.500000) translate(21.000000, 98.000000)">
                    <g id="Back-Arm" stroke-width="1" transform="translate(180.669064, 31.882645) rotate(-9.000000) translate(-180.669064, -31.882645) translate(135.669064, -1.617355)">
                        <path d="M24.9017374,17.1828563 L61.7755746,31.5524351 C70.7364583,31.5682033 78.4699273,32.5029708 84.9759817,34.3567377 C86.6237724,35.2086929 88.8793374,37.2238264 83.2734636,38.2731988 C77.6675899,39.3225712 71.8182462,40.6784704 71.5623567,42.7550181 C71.3064672,44.8315659 75.23068,46.1814031 74.3759877,49.1197113 C73.8061928,51.0785835 67.8487116,48.1459161 56.5035439,40.3217093 L22.602043,35.844917 L24.9017374,17.1828563 Z" id="Hand" fill="#997659" transform="translate(54.725393, 33.445453) rotate(-41.000000) translate(-54.725393, -33.445453) "></path>
                        <path d="M5.51461581,33.9109156 C17.5426269,35.6859294 33.9569181,35.6859294 52.7601945,27.546763 L57.1000761,43.5729205 C43.4624381,53.402169 25.3693431,60.3871291 10.9443235,57.6853095 C-0.423387005,55.5561267 -4.07164595,40.8201582 5.51461581,33.9109156 Z" id="Sleeve" fill="#2026A2"></path>
                    </g>
                    <path d="M80.4727876,140.605966 C98.5450578,137.048144 152.29468,155.124265 161.473933,135.605966 C179.629916,97 145.935276,43.5729205 142.54375,1.56907658e-14 L114.797001,-2.4158453e-13 C111.75441,-2.4158453e-13 91.0747993,39.6421572 91.0555178,65.3966157 C91.0379108,88.9143806 69.1554006,103.85132 80.4727876,140.605966 Z" id="Clothes-Jacket" fill="#1F28CF"></path>
                    <g id="Front-Arm" stroke-width="1" transform="translate(104.000000, 0.000000)">
                        <path d="M109,58.7398397 L124.246523,50.3642065 C126.385826,42.2239107 128.943102,38.1282526 131.918351,38.0772323 C134.203961,37.0137608 130.223587,47.2997848 134.556381,46.4077826 C138.889175,45.5157805 149.464286,37.6506887 151.286431,39.2475996 C153.982176,41.6101262 151.578484,48.864452 148.746364,52.4730906 C143.453134,59.2176317 139.070569,61.5240612 128.238377,64.5443446 C122.574749,66.1235046 116.451364,69.288795 109.868224,74.0402157 L109,58.7398397 Z" id="Hand" fill="#997659"></path>
                        <path d="M35.7831604,1.84741111e-13 C33.931345,37.0836483 39.2883696,57.783254 51.8542342,62.0988172 C64.4200988,66.4143804 86.8139985,62.8392483 119.035933,51.3734208 C126.571674,66.9635189 130.055257,78.0780631 129.486685,84.7170535 C22.1372982,140.792222 -22.0206396,68.8751166 11.6703349,1.84741111e-13 L35.7831604,1.84741111e-13 Z" id="Sleeve" fill="#1F28CF"></path>
                    </g>
                </g>
            </g>
            <g id="Group-8" transform="translate(1050.000000, 0.000000)">
                <g id="Head/Front/Pony" transform="translate(173.000000, 68.000000) rotate(15.000000) translate(-173.000000, -68.000000) translate(105.000000, 16.000000)">
                    <g id="Head" stroke-width="1" transform="translate(56.000000, 31.000000)" fill="#B28B67">
                        <polygon id="Neck" points="9.48548113e-17 73 10.0838263 26 17.3565406 26 24 73"></polygon>
                        <path d="M35.7603014,49.2634576 C28.2710248,51.1939193 -0.444777553,36.4259284 1.05677633,15.0254539 C2.55833022,-6.37502057 32.3485306,-1.66718886 38.1433414,9.13393292 C43.9381521,19.9350547 43.249578,47.3329958 35.7603014,49.2634576 Z"></path>
                    </g>
                    <path d="M72.5687217,63.9853286 C69.5926236,69.6979779 65.4765087,74 61.3643383,74 C53.5536227,74 48,63.5572795 48,52.3295687 C48,51.9350856 48.0078163,51.5432268 48.0232386,51.1542949 C39.7608945,56.8241057 33.3932077,68 22.4607455,68 C7.58722916,68 1.68033575,38 22.4607455,38 C36.593003,38 43.5445762,40.0604811 49.5354741,43.1074469 C50.7170741,39.7763359 52.5188193,36.9756887 54.7219959,35.0199012 C55.2520171,34.4232542 56.0645989,33.8524026 57.1129199,33.3231942 C57.7538221,32.972543 58.4170423,32.6869516 59.098675,32.4720339 C62.7117049,31.1442871 67.9449543,30.2077896 73.790603,30.003655 C74.8821722,29.9655366 75.9542211,29.9543821 77.0000488,29.9684338 C77.0170696,24.4601029 81.4876784,20 87,20 C92.5228475,20 97,24.4771525 97,30 C97,35.3410915 92.8126832,39.7041827 87.5417481,39.9855753 C84.5265081,40.9159529 80.6524637,41.5990548 76.3561881,41.8871153 C76.7733127,43.4557543 77,45.2377873 77,47.2515622 C77,49.0297049 76.8037398,50.9155223 76.4423579,52.830311 C75.5105469,51.7227516 74.2646032,51 73,51 C69.4624339,51 67,53.9101491 67,57 C67,60.9215044 69.2638886,63.7584261 72.5687217,63.9853286 Z" id="hair" fill="#191847"></path>
                </g>
                <g id="Bottom/Standing/Jogging" transform="translate(0.000000, 203.000000)">
                    <polygon id="Leg" fill="#997659" points="130 0 204.306413 124.226909 260.014844 229.25029 272.013946 229.25029 178.673688 5.090379e-13"></polygon>
                    <g id="Accessories/Shoe/Flat-Sneaker" transform="translate(250.000000, 199.000000)" fill="#E4E4E4">
                        <path d="M2.67813181,25.4019242 C1.55937727,28.3884109 1,30.6229931 1,32.1056708 C1,33.908957 1.3004142,36.5404001 1.90124261,40 C3.99318117,40 22.7937852,40 58.3030548,40 C59.768738,35.1545073 58.9226607,32.5385816 55.7648228,32.1522232 C52.606985,31.7658647 49.9837155,31.4170139 47.8950143,31.1056708 L21.6799926,19.4188835 C21.1755635,19.1940064 20.584344,19.4206282 20.359467,19.9250573 C20.35562,19.9336867 20.3518954,19.9423702 20.3482945,19.9511052 L18.6632131,24.038695 C15.7398812,25.4026522 13.3643706,26.0846307 11.5366811,26.0846307 C10.0517269,26.0846307 8.00099246,25.4849054 5.38447792,24.2854549 L5.38448339,24.285443 C4.38038273,23.8251478 3.19325534,24.2659892 2.73296014,25.2700899 C2.71312074,25.3133681 2.69483298,25.3573409 2.67813181,25.4019242 Z" id="shoe"></path>
                    </g>
                    <path d="M244.543057,212.432889 L267.683113,205.432889 C257.544824,175.124875 245.118911,141.772016 230.405374,105.374313 C215.691837,68.97661 199.890046,33.851839 183,2.84217094e-14 L117.644073,2.84217094e-14 C136.422172,42.821022 156.329475,81.7294172 177.365982,116.725186 C198.402489,151.720954 220.794847,183.623522 244.543057,212.432889 Z" id="Pant" fill="#DB2721"></path>
                    <path d="M125.116628,2.84217094e-14 C118.103498,43.6541888 104.577091,99.4274685 103.300563,101.148648 C102.449544,102.296102 71.8126514,112.562199 11.3898843,131.94694 L13.9818352,142.527938 C86.0358431,132.131776 124.00216,124.066006 127.880787,118.330628 C133.698727,109.72756 162.748486,41.763137 174,2.84217094e-14 L125.116628,2.84217094e-14 Z" id="Leg" fill="#B28B67"></path>
                    <path d="M32.6295078,122.800477 L37.1949469,139.841939 C91.0871466,144.568621 124.108088,141.153296 136.25777,129.595966 C148.407453,118.038636 162.254504,74.839981 177.798925,-1.13686838e-13 L115.478146,-1.13686838e-13 C105.629567,61.2838742 100.12357,93.2121259 98.9601559,95.7847551 C97.7967416,98.3573843 75.6865256,107.362625 32.6295078,122.800477 Z" id="Pant" fill="#FF4133"></path>
                    <g id="Accessories/Shoe/Flat-Sneaker" transform="translate(24.500000, 154.000000) rotate(80.000000) translate(-24.500000, -154.000000) translate(-6.000000, 134.000000)" fill="#E4E4E4">
                        <path d="M2.67813181,25.4019242 C1.55937727,28.3884109 1,30.6229931 1,32.1056708 C1,33.908957 1.3004142,36.5404001 1.90124261,40 C3.99318117,40 22.7937852,40 58.3030548,40 C59.768738,35.1545073 58.9226607,32.5385816 55.7648228,32.1522232 C52.606985,31.7658647 49.9837155,31.4170139 47.8950143,31.1056708 L21.6799926,19.4188835 C21.1755635,19.1940064 20.584344,19.4206282 20.359467,19.9250573 C20.35562,19.9336867 20.3518954,19.9423702 20.3482945,19.9511052 L18.6632131,24.038695 C15.7398812,25.4026522 13.3643706,26.0846307 11.5366811,26.0846307 C10.0517269,26.0846307 8.00099246,25.4849054 5.38447792,24.2854549 L5.38448339,24.285443 C4.38038273,23.8251478 3.19325534,24.2659892 2.73296014,25.2700899 C2.71312074,25.3133681 2.69483298,25.3573409 2.67813181,25.4019242 Z" id="shoe"></path>
                    </g>
                </g>
                <g id="Body/Trench-Coat" transform="translate(150.000000, 191.500000) rotate(10.000000) translate(-150.000000, -191.500000) translate(22.000000, 98.000000)">
                    <g id="Right-Arm" transform="translate(185.115789, 65.224513) rotate(-4.000000) translate(-185.115789, -65.224513) translate(122.115789, -2.775487)">
                        <path d="M71.9540333,89 L102.582692,114.060924 C111.100127,116.844986 118.166234,120.123776 123.781013,123.897294 C125.084887,125.216747 126.607346,127.830261 120.95157,127.095963 C115.295793,126.361665 109.313741,125.843655 108.428687,127.739495 C107.543633,129.635336 110.858658,132.131755 109.13781,134.662138 C107.990579,136.34906 103.230921,131.718965 94.8588384,120.771852 L64,106.03803 L71.9540333,89 Z" id="Arm" fill="#B28B67" transform="translate(94.500000, 112.000000) rotate(1.000000) translate(-94.500000, -112.000000) "></path>
                        <path d="M4.9792718,9.21054221 L15.5961227,4.63843187 C33.6683559,40.3896079 58.9230646,74.3010145 98.5275304,101.346035 L90.7682873,117.911928 C56.6158442,101.621394 24.5706115,89.4491188 9.58307018,61.8321985 C4.55286387,52.5632462 5.64558032,20.7613641 4.9792718,9.21054221 Z" id="Clothes-Back" fill="#69A1AC" transform="translate(51.753401, 61.275180) rotate(5.000000) translate(-51.753401, -61.275180) "></path>
                        <path d="M70.8566767,104.367948 C68.6499868,105.511251 64.5097183,97.5201204 66.7164082,96.3768168 C72.9652718,93.1392309 80.438837,93.0663385 88.9246836,95.9255407 C91.2798694,96.7190917 92.5458245,99.2716473 91.7522735,101.626833 C90.9587224,103.982019 88.4061668,105.247974 86.050981,104.454423 C79.7120664,102.318603 74.7181051,102.367311 70.8566767,104.367948 Z" id="Sinch" fill="#69A1AC" transform="translate(79.038420, 99.275930) scale(-1, -1) translate(-79.038420, -99.275930) "></path>
                    </g>
                    <g id="Left-Arm" transform="translate(58.833922, 76.594499) rotate(2.000000) translate(-58.833922, -76.594499) translate(-3.166078, -12.905501)">
                        <path d="M57.7406441,89.7252545 C40.6836912,127.472989 30.7877173,148.082171 28.0527223,151.552801 C26.0471215,154.09785 13.8400185,160.530289 5.594109,163.935401 C2.28431275,165.302167 2.94114857,168.091078 3.88910756,168.996203 C11.5995939,176.358291 18.818885,171.125279 27.2595578,169.184427 C36.5070398,167.058057 33.4464306,177.961938 40.7519409,176.394826 C39.679519,171.368652 36.7057235,161.80784 40.1613789,156.679713 C41.6972257,154.400546 53.3867157,133.349547 75.2298488,93.5267153 L57.7406441,89.7252545 Z" id="Arm" fill="#B28B67" transform="translate(39.174837, 133.137400) rotate(-4.000000) translate(-39.174837, -133.137400) "></path>
                        <path d="M105.470294,6.24501902 C67.1065852,40.2331748 45.1177728,88.895271 39.5038564,152.231308 L59.068771,154.424784 C69.3588279,100.360044 87.5038564,68.5699562 113.503856,59.0545213 L110.789845,5.30703864 L105.470294,6.24501902 Z" id="Clothes-Front" fill="#89C5CC" transform="translate(76.503856, 79.865911) rotate(8.000000) translate(-76.503856, -79.865911) "></path>
                        <path d="M32.6399821,138.627401 C30.4332921,139.770705 26.2930236,131.779573 28.4997135,130.63627 C34.7485771,127.398684 42.2221424,127.325792 50.7079889,130.184994 C53.0631748,130.978545 54.3291299,133.5311 53.5355788,135.886286 C52.7420278,138.241472 50.1894722,139.507427 47.8342864,138.713876 C41.4953717,136.578056 36.5014104,136.626764 32.6399821,138.627401 Z" id="Sinch" fill="#89C5CC"></path>
                    </g>
                    <g id="Body" transform="translate(47.000000, 0.000000)">
                        <path d="M43,113.909745 C74.4383261,117.363418 99.1837373,117.363418 117.236234,113.909745 C119.472817,113.481858 119.374598,103.840401 118.337385,101.207228 C102.185283,60.2018743 91.5603019,30.1840325 91.5603019,1.70263734 C88.5965945,3.25072994 83.4098272,3.48273097 76,2.39864042 C56.0862017,31.7496339 46.9325378,65.4265407 43,113.909745 Z" id="Clothes-Body" fill="#191847"></path>
                        <path d="M0.882812934,226 C42.1319105,209.522766 76.5078567,230.146789 106.190593,223.518112 C122.249642,140.9549 76,44.2807404 79.3484247,4.26325641e-14 L69.5315827,4.8836438e-14 C64.0174188,13.2047599 49.3360142,33.0618194 42.1319105,53.0081679 C36.1970118,69.4404074 43.8873879,86.2786707 41.0917371,103.583451 C34.8809565,142.027523 2.64435892,187.840793 0.882812934,226 Z" id="Clothes-Body" fill="#89C5CC"></path>
                        <circle id="Button" fill="#5C63AB" cx="84" cy="88" r="4"></circle>
                        <circle id="Button" fill="#5C63AB" cx="89" cy="111" r="4"></circle>
                        <circle id="Button" fill="#5C63AB" cx="90" cy="134" r="4"></circle>
                        <polygon id="Shade-Lapel" fill-opacity="0.1" fill="#000000" points="72.1057588 1 66.9466036 16.8654451 77.3359966 28.7590435 67.9466036 38.1055065 90.6622511 77 62.8835865 38.1832119 72.1057588 28.7590435 62.8835865 18.2484583"></polygon>
                        <rect id="Belt" fill="#89C5CC" transform="translate(40.500000, 114.000000) rotate(10.000000) translate(-40.500000, -114.000000) " x="36" y="108" width="9" height="12" rx="4.5"></rect>
                    </g>
                </g>
            </g>
        </g>
    </g>
</svg>