<svg id="Layer_1" data-name="Layer 1" xmlns="http://www.w3.org/2000/svg" viewBox="0 0 728.85377 749.76128"><defs><style>.cls-1{fill:#1dc4f4;}.cls-2{fill:#b28b68;}.cls-10,.cls-2,.cls-3,.cls-4,.cls-5,.cls-6,.cls-7,.cls-8,.cls-9{fill-rule:evenodd;}.cls-3{fill:#fde076;}.cls-4{fill:#99765a;}.cls-5{fill:#e4e4e4;}.cls-6{fill:#984c9d;}.cls-7{fill:#8a57a3;}.cls-8{fill:#b0bac5;}.cls-9{fill:#c5cfd6;}.cls-10{fill:#010101;fill-opacity:0.1;}</style></defs><title>information-illustration2</title><path class="cls-1" d="M654.93269,210.94871C641.70554,180.7799,499.964,97.236,447.51308,37.1614s-271.79121,22.528-221.72441,219.916S156.6488,472.70242,68.43586,413.70056-78.18835,814.91322,275.85547,690.47293,724.07256,368.64459,654.93269,210.94871Z" transform="translate(-1.33458 -17.92184)"/><g id="Sited"><g id="Scene"><g id="hero-2"><g id="Head_Front_Short-2" data-name="Head/Front/Short-2"><g id="Head"><polygon id="Neck" class="cls-2" points="279.594 125.185 218.963 55.554 206.806 62.293 239.477 147.422 279.594 125.185"/><path class="cls-2" d="M199.04561,136.35647c14.31673-3.69549,48.56166-55.11686,26.11926-89.68472s-67.8533.94494-67.47941,24.46324S184.72887,140.05194,199.04561,136.35647Z" transform="translate(-1.33458 -17.92184)"/></g><path id="Hair" class="cls-3" d="M238.81948,92.44041c-7.44669-25.30876-1.61093-48.60947-9.38046-57.45962q-7.76952-8.85013-18.6163-6.0444-15.967-17.23365-41.05847.56975c-25.09149,17.8034-35.22553,38.01529-14.55943,58.67418,6.47956-3.59168,12.996-10.2832,26.04969-12.243q6.2128-.93276,13.96784,7.83152l4.88792-2.70943q.54264-15.80294,9.20169-16.49381T220.92055,78.092L233.6194,95.32286Z" transform="translate(-1.33458 -17.92184)"/></g><g id="Bottom_Standing_Jogging" data-name="Bottom/Standing/Jogging"><polygon id="Leg" class="cls-4" points="405.424 212.59 338.903 481.837 295.692 705.481 273.712 712.201 316.263 239.849 405.424 212.59"/><g id="Accessories_Shoe_Flat-Sneaker" data-name="Accessories/Shoe/Flat-Sneaker"><path id="shoe" class="cls-5" d="M307.44854,709.78513q5.73174,7.38431,6.98905,11.4968a94.78522,94.78522,0,0,1,2.73831,14.85375l-103.187,31.54743q-8.06139-11.98188.28243-15.68475t13.81619-6.30419l41.58316-36.008a1.76817,1.76817,0,0,1,2.49413.17921l.027.032,5.44788,6.60075q9.15934,1.26626,14.175-.26718,4.15119-1.26915,10.48721-6.91718h0a3.53633,3.53633,0,0,1,4.99289.28663Q307.37476,709.6901,307.44854,709.78513Z" transform="translate(-1.33458 -17.92184)"/></g><path id="Pant" class="cls-6" d="M315.94643,683.92184l-46.30972.13259q2.38837-91.82129,12.23085-204.22413t27.80472-219.63653l119.71951-36.60193q-15.613,133.47243-44.00727,247.33359T315.94643,683.92184Z" transform="translate(-1.33458 -17.92184)"/><path id="Leg-2" data-name="Leg" class="cls-2" d="M415.70351,227.77677c37.30266,76.0642,93.32576,170.68769,96.62835,173.12667q3.30259,2.439,185.61654,4.96107l1.17973,20.84018Q492.40826,458.65952,476.9313,446.15356c-15.477-12.506-106.76557-120.77478-150.77274-191.00015Z" transform="translate(-1.33458 -17.92184)"/><path id="Pant-2" data-name="Pant" class="cls-7" d="M653.91746,400.9996l1.18395,33.78354q-144.10826,58.26442-187.20406,36.70443T319.19964,257.281l114.15971-34.90212q78.55976,160.17123,83.91835,166.265T653.91746,400.9996Z" transform="translate(-1.33458 -17.92184)"/><g id="Accessories_Shoe_Flat-Sneaker-2" data-name="Accessories/Shoe/Flat-Sneaker"><path id="shoe-2" data-name="shoe" class="cls-5" d="M689.39906,399.64769q8.26743-4.36239,12.53577-4.88648a94.786,94.786,0,0,1,15.1036-.11738l13.14992,107.09751q-13.19971,5.85829-15.39743-3.00177t-3.80926-14.701l-28.24012-47.20414a1.76817,1.76817,0,0,1,.60959-2.42512l.03616-.02105,7.44648-4.21891q2.83754-8.8003,2.19834-14.006-.529-4.30852-4.991-11.529h0a3.5363,3.5363,0,0,1,1.14928-4.86726Q689.29266,399.70383,689.39906,399.64769Z" transform="translate(-1.33458 -17.92184)"/></g></g><g id="Body_Long-Sleeve" data-name="Body/Long-Sleeve"><path id="Arm" class="cls-4" d="M218.36428,286.97993,152.50589,325.3804q-25.61015,4.03662-43.35465,12.24654c-2.87852,2.11684-6.55772,6.63621,4.449,6.97619s22.57169,1.19325,23.69785,5.08418-5.9378,7.63485-3.40541,12.9942q2.53237,5.35938,31.35737-22.11439l63.23528-18.61927Z" transform="translate(-1.33458 -17.92184)"/><path id="Clothes-Back" class="cls-8" d="M244.00865,120.76228l-24.50506,21.91383c38.55523,62.47,32.25441,125.87789-54.98592,174.23792l47.53422,82.10083c79.87568-47.32916,120.85361-126.04916,72.5468-214.76137C272.09358,161.2887,258.23187,138.05168,244.00865,120.76228Z" transform="translate(-1.33458 -17.92184)"/><path id="Arm-2" data-name="Arm" class="cls-2" d="M416.10187,154.64138q128.63035,84.95718,140.03934,90.45343c5.57755,2.687,31.946,3.48767,48.97131,2.41444,6.83374-.43078,8.03818,4.90931,7.16586,7.259-7.09532,19.11223-23.88523,16.1852-40.02017,19.93615-17.67721,4.10948-3.29161,20.264-17.16227,23.704-2.362-9.53045-5.24968-28.443-15.48152-34.34843q-6.82125-3.937-156.429-83.50236Z" transform="translate(-1.33458 -17.92184)"/><path id="Clothes-Body" class="cls-9" d="M430.05953,234.7514l-119.10241,93.053c-27.62239-58.04016-39.68571-117.70857-92.22427-184.95486l32.2536-39.658C313.139,124.54351,368.45793,167.39811,430.05953,234.7514Z" transform="translate(-1.33458 -17.92184)"/><path id="Clothes-Body-2" data-name="Clothes-Body" class="cls-10" d="M430.05953,234.7514l-34.82983,27.212Q369.03055,202.81133,268.927,101.294C327.87359,125.15069,369.09105,166.90347,430.05953,234.7514Z" transform="translate(-1.33458 -17.92184)"/><path id="Clothes-Front" class="cls-9" d="M253.467,101.25354Q401.326,111.76188,539.96156,233.72l-79.19648,61.87507c-64.83339-78.609-130.9913-141.0223-210.53474-177.81686l.67177-14.52074Z" transform="translate(-1.33458 -17.92184)"/></g></g></g></g></svg>