<svg id="Layer_1" data-name="Layer 1" xmlns="http://www.w3.org/2000/svg" viewBox="0 0 709.63251 788.59827"><defs><style>.cls-1{fill:#ef518c;}.cls-2{fill:#b28b68;}.cls-10,.cls-2,.cls-3,.cls-4,.cls-5,.cls-6,.cls-7,.cls-8,.cls-9{fill-rule:evenodd;}.cls-3{fill:#7074b7;}.cls-4{fill:#99765a;}.cls-5{fill:#e4e4e4;}.cls-6{fill:#69a1ac;}.cls-7{fill:#89c6cd;}.cls-8{fill:#e87725;}.cls-9{fill:#dde3e9;}.cls-10{fill:#f99b26;}</style></defs><title>information-illustration3</title><path class="cls-1" d="M719.07737,534.51131C711.28993,566.51866,586.209,673.40647,544.98678,741.67643s-271.574,25.01032-256.54394-178.073S182.91048,363.26032,106.28326,436.68382-107.78325,67.02751,262.49068,128.09821,759.78325,367.20517,719.07737,534.51131Z" transform="translate(-16.72447 16.84236)"/><g id="Sited"><g id="Scene"><g id="hero-3"><g id="Head_Front_Airy" data-name="Head/Front/Airy"><g id="Head"><polygon id="Neck" class="cls-2" points="282.773 185.995 286.168 97.095 299.507 94.743 326.792 178.234 282.773 185.995"/><path class="cls-2" d="M357.46062,114.33718c-13.11616,5.93962-70.52978-11.68236-74.65142-51.162S334.83958,22.63929,348.93835,40.446,370.57679,108.39757,357.46062,114.33718Z" transform="translate(-16.72447 16.84236)"/></g><path id="hair" class="cls-3" d="M319.84881,22.1872c-5.9683.07783-21.704,2.18243-24.58476,2.69081-1.841.32462-3.76237,1.09424-5.14883-.39281-1.13539-1.21772-1.21838-3.60118-1.76626-5.15-.6363-1.79927-1.39848-3.55169-2.16489-5.29861A56.65825,56.65825,0,0,0,277.72419.29407a46.31157,46.31157,0,0,0-25.10514-15.66856c-11.02977-2.57191-22.81369-1.52833-33.69026,1.30566-11.6394,3.03251-21.64468,8.78921-32.14991,14.39875a72.04246,72.04246,0,0,1-32.30634,8.93762c-11.49569.26564-21.017-4.27047-31.46807-8.32644-10.699-4.15239-22.42116-6.03514-33.69319-3.13964C78.78929.50458,69.72949,6.61363,61.9396,14.014,54.65128,20.938,49.002,28.71829,46.79036,38.65651,44.411,49.3471,46.34281,60.28063,54.69616,67.8849c12.10791,11.02255,30.99052,11.09553,46.15811,8.08282a84.66379,84.66379,0,0,0,24.94311-9.23543c10.40519-5.82981,18.82934-14.08645,28.26338-21.24382A82.345,82.345,0,0,1,168.1719,36.7797c4.86516-2.3385,9.79035-3.88606,14.9662-1.63152,5.47538,2.38512,10.43124,4.80259,16.39832,5.8479a49.09464,49.09464,0,0,0,17.34012.03482c11.13772-2.05212,21.52309-7.44285,31.94738-11.66519,8.50072-3.44281,17.62058-6.98831,26.94548-6.7639,3.8911.09379,9.65526.68739,11.69662,4.32773-22.118,8.14078-26.14094,37.78816-16.06828,57.25536,5.43644,10.50718,28.62129,19.82244,35.71387,12.5441,4.49335-4.61105.51163-8.92228-2.07633-11.77544-4.95607-5.46393-7.67313-13.126-1.26252-18.66885,5.52972-4.78067,13.5736,2.83834,13.69482,2.807,1.67523-.43251,14.89924-11.26733,22.89027-25.08449,10.08007-1.17161,10.44133-7.97357,7.11677-12.898S328.09526,22.08055,319.84881,22.1872Z" transform="translate(-16.72447 16.84236)"/></g><g id="Bottom_Standing_Baggy-Pants" data-name="Bottom/Standing/Baggy-Pants"><polygon id="Leg" class="cls-4" points="307.635 331.52 437.533 542.825 531.653 724.234 555.449 720.038 389.411 317.1 307.635 331.52"/><path id="Leg-2" data-name="Leg" class="cls-2" d="M306.26707,317.86744c13.11791,79.99,18.11449,189.91655,16.76269,195.28526q-1.35185,5.3687-131.59469,153.68635L210.91333,681.468q160.58846-135.79,166.41889-151.1524c5.83042-15.36243,10.23552-148.04591,18.41781-228.22638Z" transform="translate(-16.72447 16.84236)"/><g id="Accessories_Shoe_Flat-Sneaker" data-name="Accessories/Shoe/Flat-Sneaker"><path id="shoe" class="cls-5" d="M187.901,661.62045q-7.616,4.31974-10.25032,7.45919a93.52,93.52,0,0,0-8.17644,12.3619l80.66327,67.68452q11.85891-7.74743,5.77948-14.25984t-10.00021-10.93954l-23.43588-48.0702a1.9635,1.9635,0,0,0-2.62538-.90446l-.04858.02453-7.22278,3.77261q-8.72431-2.33871-12.64513-5.62866-3.14685-2.64051-6.55741-9.77746h0a3.927,3.927,0,0,0-5.2364-1.85Q188.02091,661.55244,187.901,661.62045Z" transform="translate(-16.72447 16.84236)"/></g><g id="Accessories_Shoe_Flat-Sneaker-2" data-name="Accessories/Shoe/Flat-Sneaker"><path id="shoe-2" data-name="shoe" class="cls-5" d="M537.09157,700.66824q-1.58637,8.61087-.87471,12.64687a93.52,93.52,0,0,0,4.21405,14.2096l103.6987-18.28488q1.68789-14.06439-7.20869-13.59338t-14.80819.6288l-51.8882-12.946a1.9635,1.9635,0,0,0-2.38041,1.42978l-.01244.053L566.079,692.77q-7.39942,5.17992-12.43993,6.0687-4.04551.71333-11.705-1.26157h0a3.927,3.927,0,0,0-4.78308,2.82216Q537.11655,700.53267,537.09157,700.66824Z" transform="translate(-16.72447 16.84236)"/></g><polygon id="Pant" class="cls-6" points="438.468 720.271 549.441 688.057 397.331 315.704 296 333.571 438.468 720.271"/><path id="Pant-2" data-name="Pant" class="cls-7" d="M209.85328,634.44924,299.53454,709.105q94.69192-148.58385,107.27638-191.02842t-2.27626-217.53635L290.454,320.65571q18.25309,153.12485,16.54394,160.70164T209.85328,634.44924Z" transform="translate(-16.72447 16.84236)"/></g><g id="Body_Jacket-2" data-name="Body/Jacket-2"><path id="Skin" class="cls-2" d="M469.84408,241.74767,530.94252,200.944q14.342-20.43382,28.9576-32.32318c3.04939-1.59967,8.51458-2.88417,4.14385,6.76747s-8.5344,20.00069-5.64887,22.60438,9.115-1.93007,12.67367,2.50393q3.55872,4.434-32.40168,17.82249l-42.89058,46.828ZM203.48323,296.98558l38.76939.83684q-37.913,115.40079-40.89768,122.45015c-4.477,10.574,4.32793,26.95378,8.06254,35.73854-12.75142,5.44424-11.04084-15.52116-27.13132-8.36956-14.68665,6.52764-25.98187,18.62559-42.63538,7.93209-2.04745-1.31469-4.23223-6.16729,1.31211-9.83136,13.813-9.12856,33.7683-25.17962,36.51951-30.53032Q183.11006,404.267,203.48323,296.98558Z" transform="translate(-16.72447 16.84236)"/><path id="Coat-Back" class="cls-8" d="M318.00386,132.10707l15.32761-5.50166c40.32375,27.3686,68.53852,105.228,93.35707,111.81637,23.46493,6.229,52.49967-8.92212,86.73482-28.50387L529.0326,232.986c-26.86709,41.83157-92.25908,84.70079-123.997,72.4063C354.29314,285.736,326.23712,188.51906,318.00386,132.10707Z" transform="translate(-16.72447 16.84236)"/><path id="Shirt" class="cls-9" d="M284.17025,343.14768l139.8569-24.66054c6.39076-1.12687,3.55732-10.15437,1.81136-14.65394-20.15026-51.93057-71.9986-102.59694-85.5049-179.19493l-41.45817.77921C274.98268,185.0347,275.10889,253.22633,284.17025,343.14768Z" transform="translate(-16.72447 16.84236)"/><path id="Coat-Front" class="cls-10" d="M260.61443,291.12617q-29.14652,84.78162-52.28356,123.89629l-30.32893-.58014q-2.6893-180.88694,118.271-288.56595l.46053-.0812L312.246,123.0599q87.01738,175.83695,73.52,241.80428L259.87281,387.06253C256.56008,356.62811,257.33673,323.68792,260.61443,291.12617Z" transform="translate(-16.72447 16.84236)"/></g></g></g></g></svg>