<svg id="Layer_1" data-name="Layer 1" xmlns="http://www.w3.org/2000/svg" viewBox="0 0 48 48"><defs><style>.cls-1{fill:#ef518c;}.cls-2{fill:#dcdbdb;}</style></defs><title>instagram-pink</title><path class="cls-1" d="M330,395.9998A24,24,0,1,1,306.001,372,24.00071,24.00071,0,0,1,330,395.9998Z" transform="translate(-282 -372)"/><path class="cls-2" d="M315.2012,381H296.7969A5.80234,5.80234,0,0,0,291,386.7969v18.4062A5.80234,5.80234,0,0,0,296.7969,411h18.4043A5.804,5.804,0,0,0,321,405.2031V386.7969A5.804,5.804,0,0,0,315.2012,381Zm1.6641,3.459.6621-.0039v5.084l-5.0664.0175-.0176-5.0839Zm-15.1465,8.4629a5.269,5.269,0,1,1-1,3.0781A5.27591,5.27591,0,0,1,301.7188,392.9219Zm16.3593,12.2812a2.879,2.879,0,0,1-2.8769,2.875H296.7969a2.8774,2.8774,0,0,1-2.875-2.875V392.9219h4.4785a8.20406,8.20406,0,1,0,15.1973,0h4.4804Z" transform="translate(-282 -372)"/></svg>