<svg id="logo" xmlns="http://www.w3.org/2000/svg" viewBox="0 0 266.53 218.64"><defs><style>.cls-1{fill:#07c5f6;}.cls-2{fill:#fff;}</style></defs><title>fip_logo-v3</title><g id="white"><path class="cls-1" d="M17,218.64l7.9-66H0V132.83H27.61L33.37,84H7.27V64.17H36.1L44-.12h17.6L54,64.17H85.54L93.44-.12h17.89l-7.58,64.29h24.88V84H101l-5.46,48.81h26.09v19.85H92.83l-7.89,66H66.75l7.88-66H43.08l-7.89,66Zm60.38-85.81L83.12,84H51.57l-5.76,48.81Z"/><path class="cls-2" d="M161.41,218.64H143.69c-3.28,0-5.06-1.84-5.06-5.16v-46c0-3.31,1.78-5.15,5.06-5.15h17.72c3.35,0,5.21,1.84,5.21,5.15v13.2h-8.49V169.56h-11v41.86h11V199.55h8.49v13.93C166.62,216.8,164.76,218.64,161.41,218.64Z"/><path class="cls-2" d="M196.55,218.64H178.46c-3.35,0-5.14-1.84-5.14-5.16V162.34h8.49v49.08h11.46V162.34h8.49v51.14C201.76,216.8,199.9,218.64,196.55,218.64Z"/><path class="cls-2" d="M228.86,218.64l-9.38-26.16v-5.09h8.34V169.56H217.1v49.08h-8.49v-56.3h22.56c3.35,0,5.14,1.84,5.14,5.15V188c0,3.32-1.79,5.09-5.07,5.16h-2.9l9.38,25.21v.29Z"/><path class="cls-2" d="M242.93,218.64v-56.3h23.38v7.44H251.42v16.43h12.81v7.3H251.42V211.2h15.11v7.44Z"/><path class="cls-2" d="M162.79,113.11H148.63V134.3h-8.72V75.85h22.88c3.44,0,5.35,1.92,5.35,5.36v26.47C168.14,111.12,166.23,113.11,162.79,113.11Zm-3.45-29.76H148.63v22.26h10.71Z"/><path class="cls-2" d="M226.67,134.3,217,107.14v-5.28h8.57V83.35h-11v51h-8.73V75.85h23.19c3.44,0,5.27,1.92,5.27,5.36v21.27c0,3.44-1.83,5.27-5.2,5.35h-3L235.78,134v.3Z"/><path class="cls-2" d="M256.9,83.58V134.3h-8.73V83.58h-9.56V75.85h27.92v7.73Z"/><path class="cls-2" d="M178.13,75.78H196c3.32,0,5.08,1.84,5.08,5.15v51.15h-8.4V83H181.37v49.08H173V80.93C173,77.62,174.81,75.78,178.13,75.78Z"/><rect class="cls-2" x="172.97" y="105.61" width="28.15" height="7.5"/><path class="cls-2" d="M157.75,161.45h-14c-2.48,0-3.84-.86-3.84-2.41V137.55c0-1.55,1.36-2.42,3.84-2.42h14c2.48,0,3.9.87,3.9,2.42V159C161.65,160.59,160.23,161.45,157.75,161.45Zm-2.54-22.94h-8.86v19.56h8.86Z"/><path class="cls-2" d="M173.29,138.62v7.78h9.54v3.41h-9.54v11.64h-6.44V135.13h17.62v3.49Z"/><path class="cls-2" d="M211.41,138.62v22.83H205V138.62h-7.06v-3.49h20.6v3.49Z"/><path class="cls-2" d="M237,161.45V149.64h-8.75v11.81h-6.44V135.13h6.44V146H237V135.13h6.49v26.32Z"/><path class="cls-2" d="M248.64,161.45V135.13h17.72v3.49H255.08v7.67h9.7v3.41h-9.7V158h11.45v3.48Z"/><path class="cls-2" d="M150.81,72.91h-10.9V0h10.9Z"/><path class="cls-2" d="M186.37,0h23.19c4.3,0,6.59,2.39,6.59,6.68V72.91H205.27V9.35h-14.7V72.91H179.69V6.68C179.69,2.39,182.08,0,186.37,0Z"/><rect class="cls-2" x="179.69" y="38.63" width="36.45" height="9.71"/><path class="cls-2" d="M266.53,72.91H256.05v-36A67.44,67.44,0,0,1,256.7,29l-9.41,37.23h-5.54L232.29,29a67.65,67.65,0,0,1,.66,7.92v36H222.46V0h10.3l11.46,40.3a19.25,19.25,0,0,1,.28,3.3,26.77,26.77,0,0,1,.28-3.3L256.24,0h10.29Z"/></g></svg>