<svg id="logo" xmlns="http://www.w3.org/2000/svg" xmlns:xlink="http://www.w3.org/1999/xlink" viewBox="0 0 266.53 218.64"><defs><style>.cls-1{fill:none;}.cls-2{fill:#ff4d8d;}.cls-3{clip-path:url(#clip-path);}.cls-4{fill:#fff;}</style><clipPath id="clip-path"><rect class="cls-1" width="266.53" height="218.64"/></clipPath></defs><g id="logo-2" data-name="logo"><rect class="cls-2" y="59.24" width="266.53" height="27.95"/><rect class="cls-2" y="126.34" width="266.53" height="35.99"/><g class="cls-3"><rect class="cls-2" x="-75.94" y="91.6" width="231.89" height="33.06" transform="translate(-71.93 135.74) rotate(-83.55)"/><rect class="cls-2" x="-25.67" y="91.6" width="231.89" height="33.06" transform="translate(-27.31 185.69) rotate(-83.55)"/></g><path class="cls-4" d="M161.41,218.64H143.69c-3.28,0-5.06-1.84-5.06-5.16v-46c0-3.31,1.78-5.15,5.06-5.15h17.72c3.35,0,5.21,1.84,5.21,5.15v13.2h-8.49V169.56h-11v41.86h11V199.55h8.49v13.93C166.62,216.8,164.76,218.64,161.41,218.64Z"/><path class="cls-4" d="M196.55,218.64H178.46c-3.35,0-5.14-1.84-5.14-5.16V162.34h8.49v49.08h11.46V162.34h8.49v51.14C201.76,216.8,199.9,218.64,196.55,218.64Z"/><path class="cls-4" d="M228.86,218.64l-9.38-26.16v-5.09h8.34V169.56H217.1v49.08h-8.49v-56.3h22.56c3.35,0,5.14,1.84,5.14,5.15V188c0,3.32-1.79,5.09-5.07,5.16h-2.9l9.38,25.21v.29Z"/><path class="cls-4" d="M242.93,218.64v-56.3h23.38v7.44H251.42v16.43h12.81v7.3H251.42V211.2h15.11v7.44Z"/><path class="cls-4" d="M162.79,112.17H148.63v14.17h-8.72V87.24h22.88c3.44,0,5.35,1.28,5.35,3.59v17.7C168.14,110.84,166.23,112.17,162.79,112.17Zm-3.45-19.91H148.63v14.89h10.71Z"/><path class="cls-4" d="M226.67,126.34,217,108.18v-3.54h8.57V92.26h-11v34.08h-8.73V87.24h23.19c3.44,0,5.27,1.28,5.27,3.59v14.22c0,2.31-1.83,3.53-5.2,3.59h-3l9.64,17.5v.2Z"/><path class="cls-4" d="M256.9,92.41v33.93h-8.73V92.41h-9.56V87.24h27.92v5.17Z"/><path class="cls-4" d="M178.13,87.19H196c3.32,0,5.08,1.28,5.08,3.59v35.56h-8.4V92.22H181.37v34.12H173V90.78C173,88.47,174.81,87.19,178.13,87.19Z"/><rect class="cls-4" x="172.97" y="107.94" width="28.15" height="5.21"/><path class="cls-4" d="M157.75,160.56h-14c-2.48,0-3.84-1.06-3.84-2.95V131.33c0-1.89,1.36-2.94,3.84-2.94h14c2.48,0,3.9,1.05,3.9,2.94v26.28C161.65,159.5,160.23,160.56,157.75,160.56Zm-2.54-28.05h-8.86v23.92h8.86Z"/><path class="cls-4" d="M173.29,132.64v9.51h9.54v4.17h-9.54v14.24h-6.44V128.39h17.62v4.25Z"/><path class="cls-4" d="M211.41,132.64v27.92H205V132.64h-7.06v-4.25h20.6v4.25Z"/><path class="cls-4" d="M237,160.56V146.11h-8.75v14.45h-6.44V128.39h6.44v13.26H237V128.39h6.49v32.17Z"/><path class="cls-4" d="M248.64,160.56V128.39h17.72v4.25H255.08V142h9.7v4.17h-9.7v10.1h11.45v4.26Z"/><path class="cls-4" d="M150.81,59.24h-10.9V0h10.9Z"/><path class="cls-4" d="M186.37,0h23.19c4.3,0,6.59,1.94,6.59,5.43V59.24H205.27V7.6h-14.7V59.24H179.69V5.43C179.69,1.94,182.08,0,186.37,0Z"/><rect class="cls-4" x="179.69" y="31.39" width="36.45" height="7.89"/><path class="cls-4" d="M266.53,59.24H256.05V30a44.7,44.7,0,0,1,.65-6.44l-9.41,30.25h-5.54l-9.46-30.25A45,45,0,0,1,233,30V59.24H222.46V0h10.3l11.46,32.74a13,13,0,0,1,.28,2.69,17.91,17.91,0,0,1,.28-2.69L256.24,0h10.29Z"/></g></svg>