<svg id="Layer_1" data-name="Layer 1" xmlns="http://www.w3.org/2000/svg" viewBox="0 0 48 48"><defs><style>.cls-1{fill:#f7ca11;}.cls-2{fill:#1c1d1e;}</style></defs><title>snap-yellow</title><circle class="cls-1" cx="24" cy="24" r="24"/><path id="path12604" class="cls-2" d="M305.8671,382.0009a8.45348,8.45348,0,0,0-5.166,1.6406,8.3395,8.3395,0,0,0-2.5161,3.2766l-.0023.0093a9.32469,9.32469,0,0,0-.4017,4.0063v.0023a18.18042,18.18042,0,0,1,.0587,2.6283c-.0069.0326-.0072.0407-.0117.0604a3.61475,3.61475,0,0,1-1.2968-.0372h-.0071c-.3026-.0515-.626-.1749-.9913-.2765l-.0188-.0046a1.19424,1.19424,0,0,0-.9703.2184l-.0117.007-.0165.0116a1.01038,1.01038,0,0,0-.5309.7971.3703.3703,0,0,0,.007.0813.9665.9665,0,0,0,.3336.5391c.1349.1165.2622.1934.3407.2533l.0188.014a9.6336,9.6336,0,0,0,2.0297.8807h.0024a1.46808,1.46808,0,0,1,.9115.8714,2.47125,2.47125,0,0,1-.3595,1.5593v.0023a9.546,9.546,0,0,1-3.0892,3.5392,7.45993,7.45993,0,0,1-2.267,1.0341l-.0329.0117a1.29082,1.29082,0,0,0-.8058.474.37186.37186,0,0,0-.0423.0837.68807.68807,0,0,0,.1292.6367,1.09925,1.09925,0,0,0,.3453.2696l.0165.0093a8.13267,8.13267,0,0,0,2.1002.7297l.0094.0023a8.10251,8.10251,0,0,1,1.3062.3253c.018.0299.0548.1531.1409.3579.1204.3718.1752.8108.3148,1.2711a.38259.38259,0,0,0,.282.258.81783.81783,0,0,0,.505-.0419.36407.36407,0,0,0,.0376-.0046,8.13813,8.13813,0,0,1,3.3078-.1116h.0023a12.71851,12.71851,0,0,1,3.108,1.6802l.0047.0046v-.0023a5.02746,5.02746,0,0,0,2.4761.9133v.0023h.0094a16.96143,16.96143,0,0,0,2.1026-.0511h.0117a3.77171,3.77171,0,0,0,1.6539-.5671l.0211-.0116c1.1236-.6368,2.1219-1.4041,3.2162-1.8846l.0046-.0023a5.13686,5.13686,0,0,1,1.2921-.1534c.0047-.0001.0094.0002.0141,0a16.78432,16.78432,0,0,1,2.7134.1394.37827.37827,0,0,0,.0939,0,.5117.5117,0,0,0,.3101-.1719.49254.49254,0,0,0,.094-.1906c.026-.0921.0502-.1361.0071-.0604a.3744.3744,0,0,0,.0329-.0744,3.80162,3.80162,0,0,1,.5215-1.3362.79078.79078,0,0,1,.5591-.1696.38746.38746,0,0,0,.0517-.0023,9.82024,9.82024,0,0,0,2.159-.6089l.0235-.0093a1.8485,1.8485,0,0,0,.8739-.5832l.0047-.0047-.0024-.0023a.61629.61629,0,0,0-.1879-.8854l.0046-.0046c-.0095-.0065-.0186-.0102-.0281-.0163l-.0071-.0047v.0024a3.66849,3.66849,0,0,0-.9562-.3463l-.014-.0046a8.20354,8.20354,0,0,1-3.9045-2.8491,9.02,9.02,0,0,1-1.3414-2.34l-.0023-.0093a1.13426,1.13426,0,0,1,.0516-.9993l.0071-.007a2.78091,2.78091,0,0,1,1.3461-.8575l.0071-.0023a5.22454,5.22454,0,0,0,1.8207-.9342l.007-.0069a1.154,1.154,0,0,0,.2631-.337.71458.71458,0,0,0,.0118-.6042v-.0023a1.47782,1.47782,0,0,0-.639-.6088h-.0023a1.35248,1.35248,0,0,0-1.0901-.1l-.0016-.0002-.0078.0026a6.9141,6.9141,0,0,1-.9655.2835l-.0188.0046a2.20759,2.20759,0,0,1-1.0995-.0232c-.0028-.0451-.0043-.1331-.0164-.2417h.0023c-.0224-.663.0343-1.3464.0446-2.0543v-.0046a19.19975,19.19975,0,0,0-.0845-3.2975l-.0024-.0163a7.36929,7.36929,0,0,0-3.0869-4.5779,7.8148,7.8148,0,0,0-3.7776-1.3409l-.0015.0001a12.15755,12.15755,0,0,0-1.3493-.0559Z" transform="translate(-282 -372)"/></svg>