<svg id="Layer_1" data-name="Layer 1" xmlns="http://www.w3.org/2000/svg" viewBox="0 0 48 48"><defs><style>.cls-1{fill:#1dc4f4;}.cls-2{fill:#dcdbdb;}</style></defs><title>tiktok-blue</title><circle class="cls-1" cx="24" cy="24" r="24"/><path class="cls-2" d="M307.69064,379.05408a1.11365,1.11365,0,0,0-1.11354,1.11137s-.01223,5.42873-.02392,10.87c-.0059,2.72065-.013,5.44412-.0174,7.49463s-.00653,3.348-.00653,3.45589a3.862,3.862,0,0,1-3.92783,3.67337,3.73318,3.73318,0,0,1,0-7.46636c.07031,0,.212.0231.45455.0522a1.11368,1.11368,0,0,0,1.24621-1.107V392.46a1.11365,1.11365,0,0,0-1.04394-1.11137c-.17352-.01091-.39188-.03262-.65682-.03262a10.60906,10.60906,0,1,0,10.60906,10.60906V391.8489a9.36374,9.36374,0,0,0,5.86783,2.11615c.30405,0,.59326-.018.87-.04349a1.11367,1.11367,0,0,0,1.01132-1.10919v-5.20014a1.11365,1.11365,0,0,0-1.03307-1.11136,7.21371,7.21371,0,0,1-6.65731-6.44852,1.11364,1.11364,0,0,0-1.107-.99827Zm1.11136,2.22708h2.54026a9.29787,9.29787,0,0,0,7.39024,7.1771v3.19055a7.19384,7.19384,0,0,1-5.70471-3.18185,1.11365,1.11365,0,0,0-2.04438.61331v12.84484a8.38247,8.38247,0,1,1-8.90831-8.27541v2.42281a5.917,5.917,0,0,0,.52632,11.81394,6.07112,6.07112,0,0,0,6.15491-5.90044c0,.05447.00207-1.401.00653-3.45154s.01154-4.774.01739-7.49463C308.79072,386.15487,308.8,382.22678,308.802,381.28116Z" transform="translate(-282 -372)"/></svg>